<?xml version="1.0" encoding="UTF-8" standalone="no"?>
<!DOCTYPE svg PUBLIC "-//W3C//DTD SVG 1.1//EN"
 "http://www.w3.org/Graphics/SVG/1.1/DTD/svg11.dtd">
<!-- Generated by graphviz version 2.40.1 (20161225.0304)
 -->
<!-- Title: pathDiagram Pages: 1 -->
<svg width="2010pt" height="195pt"
 viewBox="0.00 0.00 2010.33 195.20" xmlns="http://www.w3.org/2000/svg" xmlns:xlink="http://www.w3.org/1999/xlink">
<g id="graph0" class="graph" transform="scale(1 1) rotate(0) translate(4 191.2)">
<title>pathDiagram</title>
<polygon fill="#ffffff" stroke="transparent" points="-4,4 -4,-191.2 2006.3336,-191.2 2006.3336,4 -4,4"/>
<!-- Anthropometric -->
<g id="node1" class="node">
<title>Anthropometric</title>
<ellipse fill="#add8e6" stroke="#000000" cx="474.333" cy="-169.2" rx="62.3481" ry="18"/>
<text text-anchor="middle" x="474.333" y="-165.6" font-family="Helvetica,sans-Serif" font-size="12.00" fill="#000000">Anthropometric</text>
</g>
<!-- Development -->
<g id="node2" class="node">
<title>Development</title>
<ellipse fill="#add8e6" stroke="#000000" cx="989.333" cy="-169.2" rx="55.2253" ry="18"/>
<text text-anchor="middle" x="989.333" y="-165.6" font-family="Helvetica,sans-Serif" font-size="12.00" fill="#000000">Development</text>
</g>
<!-- Anthropometric&#45;&gt;Development -->
<g id="edge17" class="edge">
<title>Anthropometric&#45;&gt;Development</title>
<path fill="none" stroke="#000000" stroke-dasharray="5,2" d="M546.807,-169.2C647.1269,-169.2 826.8453,-169.2 923.5092,-169.2"/>
<polygon fill="#000000" stroke="#000000" points="546.7105,-165.7001 536.7104,-169.2 546.7104,-172.7001 546.7105,-165.7001"/>
<polygon fill="#000000" stroke="#000000" points="923.7371,-172.7001 933.7371,-169.2 923.737,-165.7001 923.7371,-172.7001"/>
<text text-anchor="middle" x="735.2387" y="-175.5" font-family="Helvetica,sans-Serif" font-size="11.00" fill="#000000">&#45;.66</text>
</g>
<!-- BMI -->
<g id="node4" class="node">
<title>BMI</title>
<polygon fill="none" stroke="#000000" points="501.333,-36 447.333,-36 447.333,0 501.333,0 501.333,-36"/>
<text text-anchor="middle" x="474.333" y="-14.4" font-family="Helvetica,sans-Serif" font-size="12.00" fill="#000000">BMI</text>
</g>
<!-- Anthropometric&#45;&gt;BMI -->
<g id="edge1" class="edge">
<title>Anthropometric&#45;&gt;BMI</title>
<path fill="none" stroke="#000000" d="M474.333,-150.9617C474.333,-124.9655 474.333,-77.0168 474.333,-46.3608"/>
<polygon fill="#000000" stroke="#000000" points="477.8331,-46.3029 474.333,-36.3029 470.8331,-46.303 477.8331,-46.3029"/>
<text text-anchor="middle" x="485.0338" y="-90.3" font-family="Helvetica,sans-Serif" font-size="11.00" fill="#000000">1.08</text>
</g>
<!-- Body Fat Percentage -->
<g id="node5" class="node">
<title>Body Fat Percentage</title>
<polygon fill="none" stroke="#000000" points="672.5409,-36 544.1251,-36 544.1251,0 672.5409,0 672.5409,-36"/>
<text text-anchor="middle" x="608.333" y="-14.4" font-family="Helvetica,sans-Serif" font-size="12.00" fill="#000000">Body Fat Percentage</text>
</g>
<!-- Anthropometric&#45;&gt;Body Fat Percentage -->
<g id="edge2" class="edge">
<title>Anthropometric&#45;&gt;Body Fat Percentage</title>
<path fill="none" stroke="#000000" d="M489.9668,-151.5595C513.4156,-125.1008 557.8428,-74.9711 585.0962,-44.2194"/>
<polygon fill="#000000" stroke="#000000" points="587.9505,-46.2757 591.9638,-36.4704 582.7118,-41.6329 587.9505,-46.2757"/>
<text text-anchor="middle" x="553.9764" y="-90.3" font-family="Helvetica,sans-Serif" font-size="11.00" fill="#000000">.78</text>
</g>
<!-- MDD Weight Gain -->
<g id="node6" class="node">
<title>MDD Weight Gain</title>
<polygon fill="none" stroke="#000000" points="112.4995,-36 .1665,-36 .1665,0 112.4995,0 112.4995,-36"/>
<text text-anchor="middle" x="56.333" y="-14.4" font-family="Helvetica,sans-Serif" font-size="12.00" fill="#000000">MDD Weight Gain</text>
</g>
<!-- Anthropometric&#45;&gt;MDD Weight Gain -->
<g id="edge3" class="edge">
<title>Anthropometric&#45;&gt;MDD Weight Gain</title>
<path fill="none" stroke="#000000" d="M435.3839,-155.1112C361.9324,-128.5422 202.546,-70.8885 115.683,-39.4682"/>
<polygon fill="#000000" stroke="#000000" points="116.8226,-36.1586 106.2283,-36.0483 114.4415,-42.7412 116.8226,-36.1586"/>
<text text-anchor="middle" x="285.9764" y="-90.3" font-family="Helvetica,sans-Serif" font-size="11.00" fill="#000000">.68</text>
</g>
<!-- Fat&#45;Free Mass -->
<g id="node7" class="node">
<title>Fat&#45;Free Mass</title>
<polygon fill="none" stroke="#000000" points="249.3318,-36 155.3342,-36 155.3342,0 249.3318,0 249.3318,-36"/>
<text text-anchor="middle" x="202.333" y="-14.4" font-family="Helvetica,sans-Serif" font-size="12.00" fill="#000000">Fat&#45;Free Mass</text>
</g>
<!-- Anthropometric&#45;&gt;Fat&#45;Free Mass -->
<g id="edge4" class="edge">
<title>Anthropometric&#45;&gt;Fat&#45;Free Mass</title>
<path fill="none" stroke="#000000" d="M445.4817,-153.1621C397.1732,-126.3082 299.7439,-72.149 243.9964,-41.16"/>
<polygon fill="#000000" stroke="#000000" points="245.5301,-38.0081 235.0892,-36.2086 242.129,-44.1264 245.5301,-38.0081"/>
<text text-anchor="middle" x="354.9764" y="-90.3" font-family="Helvetica,sans-Serif" font-size="11.00" fill="#000000">.54</text>
</g>
<!-- MDD Weight Loss -->
<g id="node8" class="node">
<title>MDD Weight Loss</title>
<polygon fill="none" stroke="#000000" points="404.5019,-36 292.1641,-36 292.1641,0 404.5019,0 404.5019,-36"/>
<text text-anchor="middle" x="348.333" y="-14.4" font-family="Helvetica,sans-Serif" font-size="12.00" fill="#000000">MDD Weight Loss</text>
</g>
<!-- Anthropometric&#45;&gt;MDD Weight Loss -->
<g id="edge5" class="edge">
<title>Anthropometric&#45;&gt;MDD Weight Loss</title>
<path fill="none" stroke="#000000" d="M459.6326,-151.5595C437.5837,-125.1008 395.8089,-74.9711 370.1825,-44.2194"/>
<polygon fill="#000000" stroke="#000000" points="372.8156,-41.9119 363.725,-36.4704 367.4381,-46.3932 372.8156,-41.9119"/>
<text text-anchor="middle" x="424.8073" y="-90.3" font-family="Helvetica,sans-Serif" font-size="11.00" fill="#000000">&#45;.32</text>
</g>
<!-- Anorexia Nervosa -->
<g id="node9" class="node">
<title>Anorexia Nervosa</title>
<polygon fill="none" stroke="#000000" points="827.1819,-36 715.4841,-36 715.4841,0 827.1819,0 827.1819,-36"/>
<text text-anchor="middle" x="771.333" y="-14.4" font-family="Helvetica,sans-Serif" font-size="12.00" fill="#000000">Anorexia Nervosa</text>
</g>
<!-- Anthropometric&#45;&gt;Anorexia Nervosa -->
<g id="edge6" class="edge">
<title>Anthropometric&#45;&gt;Anorexia Nervosa</title>
<path fill="none" stroke="#000000" d="M505.2767,-153.4468C558.1296,-126.5399 665.9764,-71.6361 726.8827,-40.6293"/>
<polygon fill="#000000" stroke="#000000" points="728.5539,-43.706 735.8776,-36.05 725.3781,-37.4678 728.5539,-43.706"/>
<text text-anchor="middle" x="641.8073" y="-90.3" font-family="Helvetica,sans-Serif" font-size="11.00" fill="#000000">&#45;.28</text>
</g>
<!-- Age at Menarche -->
<g id="node10" class="node">
<title>Age at Menarche</title>
<polygon fill="none" stroke="#000000" points="1115.1968,-36 1007.4692,-36 1007.4692,0 1115.1968,0 1115.1968,-36"/>
<text text-anchor="middle" x="1061.333" y="-14.4" font-family="Helvetica,sans-Serif" font-size="12.00" fill="#000000">Age at Menarche</text>
</g>
<!-- Development&#45;&gt;Age at Menarche -->
<g id="edge7" class="edge">
<title>Development&#45;&gt;Age at Menarche</title>
<path fill="none" stroke="#000000" d="M997.8751,-151.2616C1010.3117,-125.1448 1033.512,-76.424 1048.1502,-45.6839"/>
<polygon fill="#000000" stroke="#000000" points="1051.4381,-46.92 1052.5775,-36.3866 1045.1181,-43.9104 1051.4381,-46.92"/>
<text text-anchor="middle" x="1035.9764" y="-90.3" font-family="Helvetica,sans-Serif" font-size="11.00" fill="#000000">.43</text>
</g>
<!-- Binge Eating -->
<g id="node11" class="node">
<title>Binge Eating</title>
<polygon fill="none" stroke="#000000" points="1242.3586,-36 1158.3074,-36 1158.3074,0 1242.3586,0 1242.3586,-36"/>
<text text-anchor="middle" x="1200.333" y="-14.4" font-family="Helvetica,sans-Serif" font-size="12.00" fill="#000000">Binge Eating</text>
</g>
<!-- Development&#45;&gt;Binge Eating -->
<g id="edge8" class="edge">
<title>Development&#45;&gt;Binge Eating</title>
<path fill="none" stroke="#000000" d="M1012.3154,-152.7311C1049.6654,-125.9666 1123.7004,-72.914 1166.8874,-41.9667"/>
<polygon fill="#000000" stroke="#000000" points="1169.0037,-44.7561 1175.0935,-36.0863 1164.9263,-39.0661 1169.0037,-44.7561"/>
<text text-anchor="middle" x="1110.8073" y="-90.3" font-family="Helvetica,sans-Serif" font-size="11.00" fill="#000000">&#45;.50</text>
</g>
<!-- Childhood BMI -->
<g id="node12" class="node">
<title>Childhood BMI</title>
<polygon fill="none" stroke="#000000" points="964.5139,-36 870.1521,-36 870.1521,0 964.5139,0 964.5139,-36"/>
<text text-anchor="middle" x="917.333" y="-14.4" font-family="Helvetica,sans-Serif" font-size="12.00" fill="#000000">Childhood BMI</text>
</g>
<!-- Development&#45;&gt;Childhood BMI -->
<g id="edge9" class="edge">
<title>Development&#45;&gt;Childhood BMI</title>
<path fill="none" stroke="#000000" d="M980.7909,-151.2616C968.3543,-125.1448 945.154,-76.424 930.5158,-45.6839"/>
<polygon fill="#000000" stroke="#000000" points="933.5479,-43.9104 926.0885,-36.3866 927.2279,-46.92 933.5479,-43.9104"/>
<text text-anchor="middle" x="965.8073" y="-90.3" font-family="Helvetica,sans-Serif" font-size="11.00" fill="#000000">&#45;.95</text>
</g>
<!-- Internalizing -->
<g id="node3" class="node">
<title>Internalizing</title>
<ellipse fill="#add8e6" stroke="#000000" cx="1518.333" cy="-169.2" rx="51.5575" ry="18"/>
<text text-anchor="middle" x="1518.333" y="-165.6" font-family="Helvetica,sans-Serif" font-size="12.00" fill="#000000">Internalizing</text>
</g>
<!-- Internalizing&#45;&gt;Anorexia Nervosa -->
<g id="edge16" class="edge">
<title>Internalizing&#45;&gt;Anorexia Nervosa</title>
<path fill="none" stroke="#000000" d="M1474.7789,-159.5295C1403.0885,-143.7115 1255.6691,-111.6045 1130.333,-87 1005.3519,-62.4652 973.0512,-61.8378 848.333,-36 844.6908,-35.2454 840.957,-34.449 837.1919,-33.6279"/>
<polygon fill="#000000" stroke="#000000" points="837.7143,-30.1588 827.1936,-31.4091 836.1977,-36.9925 837.7143,-30.1588"/>
<text text-anchor="middle" x="1201.9764" y="-90.3" font-family="Helvetica,sans-Serif" font-size="11.00" fill="#000000">.37</text>
</g>
<!-- Internalizing&#45;&gt;Binge Eating -->
<g id="edge15" class="edge">
<title>Internalizing&#45;&gt;Binge Eating</title>
<path fill="none" stroke="#000000" d="M1487.5529,-154.5649C1431.767,-128.0403 1313.6279,-71.8685 1247.5666,-40.4583"/>
<polygon fill="#000000" stroke="#000000" points="1248.7454,-37.1433 1238.2114,-36.0101 1245.7396,-43.4651 1248.7454,-37.1433"/>
<text text-anchor="middle" x="1376.9764" y="-90.3" font-family="Helvetica,sans-Serif" font-size="11.00" fill="#000000">.54</text>
</g>
<!-- Depressive Symptoms -->
<g id="node13" class="node">
<title>Depressive Symptoms</title>
<polygon fill="none" stroke="#000000" points="1421.3402,-36 1285.3258,-36 1285.3258,0 1421.3402,0 1421.3402,-36"/>
<text text-anchor="middle" x="1353.333" y="-14.4" font-family="Helvetica,sans-Serif" font-size="12.00" fill="#000000">Depressive Symptoms</text>
</g>
<!-- Internalizing&#45;&gt;Depressive Symptoms -->
<g id="edge10" class="edge">
<title>Internalizing&#45;&gt;Depressive Symptoms</title>
<path fill="none" stroke="#000000" d="M1499.7261,-152.1494C1470.7007,-125.5515 1414.4881,-74.0403 1380.7949,-43.1651"/>
<polygon fill="#000000" stroke="#000000" points="1382.8886,-40.3364 1373.1513,-36.1608 1378.1593,-45.4973 1382.8886,-40.3364"/>
<text text-anchor="middle" x="1448.9764" y="-90.3" font-family="Helvetica,sans-Serif" font-size="11.00" fill="#000000">.96</text>
</g>
<!-- PTSD Symptoms -->
<g id="node14" class="node">
<title>PTSD Symptoms</title>
<polygon fill="none" stroke="#000000" points="1572.3358,-36 1464.3302,-36 1464.3302,0 1572.3358,0 1572.3358,-36"/>
<text text-anchor="middle" x="1518.333" y="-14.4" font-family="Helvetica,sans-Serif" font-size="12.00" fill="#000000">PTSD Symptoms</text>
</g>
<!-- Internalizing&#45;&gt;PTSD Symptoms -->
<g id="edge11" class="edge">
<title>Internalizing&#45;&gt;PTSD Symptoms</title>
<path fill="none" stroke="#000000" d="M1518.333,-150.9617C1518.333,-124.9655 1518.333,-77.0168 1518.333,-46.3608"/>
<polygon fill="#000000" stroke="#000000" points="1521.8331,-46.3029 1518.333,-36.3029 1514.8331,-46.303 1521.8331,-46.3029"/>
<text text-anchor="middle" x="1525.9764" y="-90.3" font-family="Helvetica,sans-Serif" font-size="11.00" fill="#000000">.85</text>
</g>
<!-- Neuroticism -->
<g id="node15" class="node">
<title>Neuroticism</title>
<polygon fill="none" stroke="#000000" points="1695.1589,-36 1615.5071,-36 1615.5071,0 1695.1589,0 1695.1589,-36"/>
<text text-anchor="middle" x="1655.333" y="-14.4" font-family="Helvetica,sans-Serif" font-size="12.00" fill="#000000">Neuroticism</text>
</g>
<!-- Internalizing&#45;&gt;Neuroticism -->
<g id="edge12" class="edge">
<title>Internalizing&#45;&gt;Neuroticism</title>
<path fill="none" stroke="#000000" d="M1534.0486,-151.8554C1558.0496,-125.3668 1603.987,-74.668 1631.9228,-43.8367"/>
<polygon fill="#000000" stroke="#000000" points="1634.8313,-45.8393 1638.9522,-36.0787 1629.6439,-41.1391 1634.8313,-45.8393"/>
<text text-anchor="middle" x="1598.9764" y="-90.3" font-family="Helvetica,sans-Serif" font-size="11.00" fill="#000000">.80</text>
</g>
<!-- Anxiety Factor Score -->
<g id="node16" class="node">
<title>Anxiety Factor Score</title>
<polygon fill="none" stroke="#000000" points="1865.1863,-36 1737.4797,-36 1737.4797,0 1865.1863,0 1865.1863,-36"/>
<text text-anchor="middle" x="1801.333" y="-14.4" font-family="Helvetica,sans-Serif" font-size="12.00" fill="#000000">Anxiety Factor Score</text>
</g>
<!-- Internalizing&#45;&gt;Anxiety Factor Score -->
<g id="edge13" class="edge">
<title>Internalizing&#45;&gt;Anxiety Factor Score</title>
<path fill="none" stroke="#000000" d="M1546.7639,-154.0101C1596.5238,-127.4245 1699.668,-72.3171 1758.2428,-41.022"/>
<polygon fill="#000000" stroke="#000000" points="1760.0753,-44.0113 1767.2461,-36.2118 1756.7766,-37.8372 1760.0753,-44.0113"/>
<text text-anchor="middle" x="1675.9764" y="-90.3" font-family="Helvetica,sans-Serif" font-size="11.00" fill="#000000">.63</text>
</g>
<!-- OC Symptoms -->
<g id="node17" class="node">
<title>OC Symptoms</title>
<polygon fill="none" stroke="#000000" points="2002.3342,-36 1908.3318,-36 1908.3318,0 2002.3342,0 2002.3342,-36"/>
<text text-anchor="middle" x="1955.333" y="-14.4" font-family="Helvetica,sans-Serif" font-size="12.00" fill="#000000">OC Symptoms</text>
</g>
<!-- Internalizing&#45;&gt;OC Symptoms -->
<g id="edge14" class="edge">
<title>Internalizing&#45;&gt;OC Symptoms</title>
<path fill="none" stroke="#000000" d="M1555.2148,-156.4391C1631.6515,-129.9923 1807.7883,-69.0498 1898.7225,-37.587"/>
<polygon fill="#000000" stroke="#000000" points="1900.0084,-40.8457 1908.3143,-34.2682 1897.7195,-34.2305 1900.0084,-40.8457"/>
<text text-anchor="middle" x="1757.9764" y="-90.3" font-family="Helvetica,sans-Serif" font-size="11.00" fill="#000000">.65</text>
</g>
</g>
</svg>
