<?xml version="1.0" encoding="UTF-8" standalone="no"?>
<!DOCTYPE svg PUBLIC "-//W3C//DTD SVG 1.1//EN"
 "http://www.w3.org/Graphics/SVG/1.1/DTD/svg11.dtd">
<!-- Generated by graphviz version 2.40.1 (20161225.0304)
 -->
<!-- Title: G Pages: 1 -->
<svg width="2541pt" height="217pt"
 viewBox="0.00 0.00 2540.68 216.80" xmlns="http://www.w3.org/2000/svg" xmlns:xlink="http://www.w3.org/1999/xlink">
<g id="graph0" class="graph" transform="scale(1 1) rotate(0) translate(4 212.8)">
<title>G</title>
<polygon fill="#ffffff" stroke="transparent" points="-4,4 -4,-212.8 2536.6794,-212.8 2536.6794,4 -4,4"/>
<!-- Anthropometric -->
<g id="node1" class="node">
<title>Anthropometric</title>
<ellipse fill="#b7d4e8" stroke="#000000" stroke-width="1.6" cx="482" cy="-133.2" rx="62.3481" ry="18"/>
<text text-anchor="middle" x="482" y="-129.6" font-family="Helvetica,sans-Serif" font-size="12.00" fill="#000000">Anthropometric</text>
</g>
<!-- Development -->
<g id="node2" class="node">
<title>Development</title>
<ellipse fill="#b7d4e8" stroke="#000000" stroke-width="1.6" cx="2280" cy="-133.2" rx="55.2253" ry="18"/>
<text text-anchor="middle" x="2280" y="-129.6" font-family="Helvetica,sans-Serif" font-size="12.00" fill="#000000">Development</text>
</g>
<!-- Anthropometric&#45;&gt;Development -->
<g id="edge18" class="edge">
<title>Anthropometric&#45;&gt;Development</title>
<path fill="none" stroke="#666666" stroke-width="1.2" stroke-dasharray="5,2" d="M549.7671,-139.263C690.8182,-151.5433 1026.3205,-178.9869 1308.5257,-188.4 1653.6046,-199.9103 2066.9057,-157.8561 2219.5357,-140.4304"/>
<polygon fill="#666666" stroke="#666666" stroke-width="1.2" points="549.7844,-136.454 541.5712,-138.5475 549.2973,-142.0328 549.7844,-136.454"/>
<polygon fill="#666666" stroke="#666666" stroke-width="1.2" points="2220.2822,-143.1632 2227.9106,-139.469 2219.6435,-137.5998 2220.2822,-143.1632"/>
<text text-anchor="middle" x="1318" y="-187.5" font-family="Helvetica,sans-Serif" font-size="11.00" fill="#000000">&#45;.62</text>
</g>
<!-- Internalizing -->
<g id="node3" class="node">
<title>Internalizing</title>
<ellipse fill="#b7d4e8" stroke="#000000" stroke-width="1.6" cx="1561" cy="-133.2" rx="51.5575" ry="18"/>
<text text-anchor="middle" x="1561" y="-129.6" font-family="Helvetica,sans-Serif" font-size="12.00" fill="#000000">Internalizing</text>
</g>
<!-- Anthropometric&#45;&gt;Internalizing -->
<g id="edge19" class="edge">
<title>Anthropometric&#45;&gt;Internalizing</title>
<path fill="none" stroke="#666666" stroke-width="1.2" stroke-dasharray="5,2" d="M552.4677,-133.2C751.65,-133.2 1316.3092,-133.2 1501.4213,-133.2"/>
<polygon fill="#666666" stroke="#666666" stroke-width="1.2" points="552.2808,-130.4001 544.2807,-133.2 552.2807,-136.0001 552.2808,-130.4001"/>
<polygon fill="#666666" stroke="#666666" stroke-width="1.2" points="1501.423,-136.0001 1509.423,-133.2 1501.4229,-130.4001 1501.423,-136.0001"/>
<text text-anchor="middle" x="1026.8225" y="-139.5" font-family="Helvetica,sans-Serif" font-size="11.00" fill="#000000">.16</text>
</g>
<!-- BMI -->
<g id="node4" class="node">
<title>BMI</title>
<path fill="none" stroke="#000000" stroke-width="1.3" d="M886,-36C886,-36 856,-36 856,-36 850,-36 844,-30 844,-24 844,-24 844,-12 844,-12 844,-6 850,0 856,0 856,0 886,0 886,0 892,0 898,-6 898,-12 898,-12 898,-24 898,-24 898,-30 892,-36 886,-36"/>
<text text-anchor="middle" x="871" y="-14.4" font-family="Helvetica,sans-Serif" font-size="12.00" fill="#000000">BMI</text>
</g>
<!-- Anthropometric&#45;&gt;BMI -->
<g id="edge1" class="edge">
<title>Anthropometric&#45;&gt;BMI</title>
<path fill="none" stroke="#333333" stroke-width="1.6" d="M532.5398,-122.711C575.7596,-113.3448 639.4393,-98.6015 694,-82.2 743.2161,-67.4051 798.7393,-46.5685 834.2603,-32.6911"/>
<polygon fill="#333333" stroke="#333333" stroke-width="1.6" points="835.6989,-35.8864 843.7267,-28.9724 833.1394,-29.3711 835.6989,-35.8864"/>
<text text-anchor="middle" x="744.7008" y="-72.3" font-family="Helvetica,sans-Serif" font-size="11.00" fill="#000000">1.07</text>
</g>
<!-- BFP -->
<g id="node5" class="node">
<title>BFP</title>
<path fill="none" stroke="#000000" stroke-width="1.3" d="M42,-36C42,-36 12,-36 12,-36 6,-36 0,-30 0,-24 0,-24 0,-12 0,-12 0,-6 6,0 12,0 12,0 42,0 42,0 48,0 54,-6 54,-12 54,-12 54,-24 54,-24 54,-30 48,-36 42,-36"/>
<text text-anchor="middle" x="27" y="-14.4" font-family="Helvetica,sans-Serif" font-size="12.00" fill="#000000">BFP</text>
</g>
<!-- Anthropometric&#45;&gt;BFP -->
<g id="edge2" class="edge">
<title>Anthropometric&#45;&gt;BFP</title>
<path fill="none" stroke="#333333" stroke-width="1.6" d="M429.5513,-123.3516C350.9199,-108.0086 198.2314,-75.9684 72,-36 69.2926,-35.1428 66.517,-34.1987 63.7381,-33.2056"/>
<polygon fill="#333333" stroke="#333333" stroke-width="1.6" points="64.9646,-29.9276 54.3723,-29.6952 62.5078,-36.4823 64.9646,-29.9276"/>
<text text-anchor="middle" x="247.6434" y="-72.3" font-family="Helvetica,sans-Serif" font-size="11.00" fill="#000000">.80</text>
</g>
<!-- MDD_WtGain_Case -->
<g id="node6" class="node">
<title>MDD_WtGain_Case</title>
<path fill="none" stroke="#000000" stroke-width="1.3" d="M273.1676,-36C273.1676,-36 172.8324,-36 172.8324,-36 166.8324,-36 160.8324,-30 160.8324,-24 160.8324,-24 160.8324,-12 160.8324,-12 160.8324,-6 166.8324,0 172.8324,0 172.8324,0 273.1676,0 273.1676,0 279.1676,0 285.1676,-6 285.1676,-12 285.1676,-12 285.1676,-24 285.1676,-24 285.1676,-30 279.1676,-36 273.1676,-36"/>
<text text-anchor="middle" x="223" y="-14.4" font-family="Helvetica,sans-Serif" font-size="12.00" fill="#000000">MDD_WtGain_Case</text>
</g>
<!-- Anthropometric&#45;&gt;MDD_WtGain_Case -->
<g id="edge3" class="edge">
<title>Anthropometric&#45;&gt;MDD_WtGain_Case</title>
<path fill="none" stroke="#333333" stroke-width="1.6" d="M447.8739,-118.0212C403.1313,-98.1202 324.3044,-63.0589 272.8697,-40.1814"/>
<polygon fill="#333333" stroke="#333333" stroke-width="1.6" points="274.1583,-36.924 263.5989,-36.0579 271.3134,-43.3199 274.1583,-36.924"/>
<text text-anchor="middle" x="368.6434" y="-72.3" font-family="Helvetica,sans-Serif" font-size="11.00" fill="#000000">.69</text>
</g>
<!-- FFM -->
<g id="node7" class="node">
<title>FFM</title>
<path fill="none" stroke="#000000" stroke-width="1.3" d="M434,-36C434,-36 404,-36 404,-36 398,-36 392,-30 392,-24 392,-24 392,-12 392,-12 392,-6 398,0 404,0 404,0 434,0 434,0 440,0 446,-6 446,-12 446,-12 446,-24 446,-24 446,-30 440,-36 434,-36"/>
<text text-anchor="middle" x="419" y="-14.4" font-family="Helvetica,sans-Serif" font-size="12.00" fill="#000000">FFM</text>
</g>
<!-- Anthropometric&#45;&gt;FFM -->
<g id="edge4" class="edge">
<title>Anthropometric&#45;&gt;FFM</title>
<path fill="none" stroke="#333333" stroke-width="1.6" d="M472.1563,-115.2C461.9066,-96.4579 445.7281,-66.8742 433.9095,-45.2632"/>
<polygon fill="#333333" stroke="#333333" stroke-width="1.6" points="436.8515,-43.3481 428.9825,-36.2538 430.7099,-46.7069 436.8515,-43.3481"/>
<text text-anchor="middle" x="460.6434" y="-72.3" font-family="Helvetica,sans-Serif" font-size="11.00" fill="#000000">.53</text>
</g>
<!-- MDD_WtLoss_Case -->
<g id="node8" class="node">
<title>MDD_WtLoss_Case</title>
<path fill="none" stroke="#000000" stroke-width="1.3" d="M665.17,-36C665.17,-36 564.83,-36 564.83,-36 558.83,-36 552.83,-30 552.83,-24 552.83,-24 552.83,-12 552.83,-12 552.83,-6 558.83,0 564.83,0 564.83,0 665.17,0 665.17,0 671.17,0 677.17,-6 677.17,-12 677.17,-12 677.17,-24 677.17,-24 677.17,-30 671.17,-36 665.17,-36"/>
<text text-anchor="middle" x="615" y="-14.4" font-family="Helvetica,sans-Serif" font-size="12.00" fill="#000000">MDD_WtLoss_Case</text>
</g>
<!-- Anthropometric&#45;&gt;MDD_WtLoss_Case -->
<g id="edge5" class="edge">
<title>Anthropometric&#45;&gt;MDD_WtLoss_Case</title>
<path fill="none" stroke="#333333" stroke-width="1.6" d="M501.9114,-115.9534C524.2745,-96.5833 560.7637,-64.9776 586.226,-42.9231"/>
<polygon fill="#333333" stroke="#333333" stroke-width="1.6" points="588.8063,-45.3185 594.0736,-36.1257 584.2233,-40.0273 588.8063,-45.3185"/>
<text text-anchor="middle" x="562.4743" y="-72.3" font-family="Helvetica,sans-Serif" font-size="11.00" fill="#000000">&#45;.31</text>
</g>
<!-- AN -->
<g id="node9" class="node">
<title>AN</title>
<path fill="none" stroke="#000000" stroke-width="1.3" d="M1216,-36C1216,-36 1186,-36 1186,-36 1180,-36 1174,-30 1174,-24 1174,-24 1174,-12 1174,-12 1174,-6 1180,0 1186,0 1186,0 1216,0 1216,0 1222,0 1228,-6 1228,-12 1228,-12 1228,-24 1228,-24 1228,-30 1222,-36 1216,-36"/>
<text text-anchor="middle" x="1201" y="-14.4" font-family="Helvetica,sans-Serif" font-size="12.00" fill="#000000">AN</text>
</g>
<!-- Anthropometric&#45;&gt;AN -->
<g id="edge6" class="edge">
<title>Anthropometric&#45;&gt;AN</title>
<path fill="none" stroke="#333333" stroke-width="1.6" d="M541.1498,-127.3862C657.1558,-115.3449 922.2822,-84.6681 1141,-36 1148.5288,-34.3247 1156.4911,-32.1962 1164.0689,-29.9941"/>
<polygon fill="#333333" stroke="#333333" stroke-width="1.6" points="1165.1701,-33.3179 1173.7403,-27.0888 1163.1561,-26.6138 1165.1701,-33.3179"/>
<text text-anchor="middle" x="971.4743" y="-72.3" font-family="Helvetica,sans-Serif" font-size="11.00" fill="#000000">&#45;.34</text>
</g>
<!-- Development&#45;&gt;Internalizing -->
<g id="edge17" class="edge">
<title>Development&#45;&gt;Internalizing</title>
<path fill="none" stroke="#666666" stroke-width="1.2" stroke-dasharray="5,2" d="M2216.3445,-133.2C2017.7884,-133.2 1819.2323,-133.2 1620.6762,-133.2"/>
<polygon fill="#666666" stroke="#666666" stroke-width="1.2" points="2216.6013,-136.0001 2224.6012,-133.2 2216.6012,-130.4001 2216.6013,-136.0001"/>
<polygon fill="#666666" stroke="#666666" stroke-width="1.2" points="1620.6079,-130.4001 1612.6079,-133.2 1620.6079,-136.0001 1620.6079,-130.4001"/>
</g>
<!-- Age_Menarche -->
<g id="node10" class="node">
<title>Age_Menarche</title>
<path fill="none" stroke="#000000" stroke-width="1.3" d="M2520.8595,-36C2520.8595,-36 2447.1405,-36 2447.1405,-36 2441.1405,-36 2435.1405,-30 2435.1405,-24 2435.1405,-24 2435.1405,-12 2435.1405,-12 2435.1405,-6 2441.1405,0 2447.1405,0 2447.1405,0 2520.8595,0 2520.8595,0 2526.8595,0 2532.8595,-6 2532.8595,-12 2532.8595,-12 2532.8595,-24 2532.8595,-24 2532.8595,-30 2526.8595,-36 2520.8595,-36"/>
<text text-anchor="middle" x="2484" y="-14.4" font-family="Helvetica,sans-Serif" font-size="12.00" fill="#000000">Age_Menarche</text>
</g>
<!-- Development&#45;&gt;Age_Menarche -->
<g id="edge7" class="edge">
<title>Development&#45;&gt;Age_Menarche</title>
<path fill="none" stroke="#333333" stroke-width="1.6" d="M2307.9376,-117.4235C2342.9376,-97.6588 2403.1799,-63.6396 2443.3031,-40.9818"/>
<polygon fill="#333333" stroke="#333333" stroke-width="1.6" points="2445.0553,-44.0119 2452.0418,-36.047 2441.6132,-37.9166 2445.0553,-44.0119"/>
<text text-anchor="middle" x="2395.6434" y="-72.3" font-family="Helvetica,sans-Serif" font-size="11.00" fill="#000000">.44</text>
</g>
<!-- BEBROAD -->
<g id="node11" class="node">
<title>BEBROAD</title>
<path fill="none" stroke="#000000" stroke-width="1.3" d="M2112.1723,-36C2112.1723,-36 2061.8277,-36 2061.8277,-36 2055.8277,-36 2049.8277,-30 2049.8277,-24 2049.8277,-24 2049.8277,-12 2049.8277,-12 2049.8277,-6 2055.8277,0 2061.8277,0 2061.8277,0 2112.1723,0 2112.1723,0 2118.1723,0 2124.1723,-6 2124.1723,-12 2124.1723,-12 2124.1723,-24 2124.1723,-24 2124.1723,-30 2118.1723,-36 2112.1723,-36"/>
<text text-anchor="middle" x="2087" y="-14.4" font-family="Helvetica,sans-Serif" font-size="12.00" fill="#000000">BEBROAD</text>
</g>
<!-- Development&#45;&gt;BEBROAD -->
<g id="edge8" class="edge">
<title>Development&#45;&gt;BEBROAD</title>
<path fill="none" stroke="#333333" stroke-width="1.6" d="M2253.1642,-117.1819C2220.1783,-97.493 2163.9393,-63.9244 2126.1366,-41.3603"/>
<polygon fill="#333333" stroke="#333333" stroke-width="1.6" points="2127.8023,-38.2785 2117.4217,-36.1585 2124.2145,-44.2892 2127.8023,-38.2785"/>
<text text-anchor="middle" x="2198.4743" y="-72.3" font-family="Helvetica,sans-Serif" font-size="11.00" fill="#000000">&#45;.42</text>
</g>
<!-- BMI_Childhood -->
<g id="node12" class="node">
<title>BMI_Childhood</title>
<path fill="none" stroke="#000000" stroke-width="1.3" d="M2317.0164,-36C2317.0164,-36 2242.9836,-36 2242.9836,-36 2236.9836,-36 2230.9836,-30 2230.9836,-24 2230.9836,-24 2230.9836,-12 2230.9836,-12 2230.9836,-6 2236.9836,0 2242.9836,0 2242.9836,0 2317.0164,0 2317.0164,0 2323.0164,0 2329.0164,-6 2329.0164,-12 2329.0164,-12 2329.0164,-24 2329.0164,-24 2329.0164,-30 2323.0164,-36 2317.0164,-36"/>
<text text-anchor="middle" x="2280" y="-14.4" font-family="Helvetica,sans-Serif" font-size="12.00" fill="#000000">BMI_Childhood</text>
</g>
<!-- Development&#45;&gt;BMI_Childhood -->
<g id="edge9" class="edge">
<title>Development&#45;&gt;BMI_Childhood</title>
<path fill="none" stroke="#333333" stroke-width="1.6" d="M2280,-114.9462C2280,-96.493 2280,-67.7192 2280,-46.3061"/>
<polygon fill="#333333" stroke="#333333" stroke-width="1.6" points="2283.5001,-46.1683 2280,-36.1684 2276.5001,-46.1684 2283.5001,-46.1683"/>
<text text-anchor="middle" x="2289.4743" y="-72.3" font-family="Helvetica,sans-Serif" font-size="11.00" fill="#000000">&#45;.99</text>
</g>
<!-- Internalizing&#45;&gt;AN -->
<g id="edge16" class="edge">
<title>Internalizing&#45;&gt;AN</title>
<path fill="none" stroke="#333333" stroke-width="1.6" d="M1520.6295,-121.8819C1460.3675,-104.7311 1343.5281,-70.4888 1246,-36 1243.3226,-35.0532 1240.5691,-34.0432 1237.806,-33.0031"/>
<polygon fill="#333333" stroke="#333333" stroke-width="1.6" points="1239.061,-29.7359 1228.4715,-29.3991 1236.5397,-36.2661 1239.061,-29.7359"/>
<text text-anchor="middle" x="1390.6434" y="-72.3" font-family="Helvetica,sans-Serif" font-size="11.00" fill="#000000">.41</text>
</g>
<!-- Internalizing&#45;&gt;BEBROAD -->
<g id="edge15" class="edge">
<title>Internalizing&#45;&gt;BEBROAD</title>
<path fill="none" stroke="#333333" stroke-width="1.6" d="M1605.7988,-124.296C1687.6781,-107.8786 1866.8901,-71.2822 2017,-36 2024.3893,-34.2632 2032.195,-32.3422 2039.8077,-30.4209"/>
<polygon fill="#333333" stroke="#333333" stroke-width="1.6" points="2040.8278,-33.7729 2049.653,-27.9106 2039.0983,-26.9899 2040.8278,-33.7729"/>
<text text-anchor="middle" x="1873.6434" y="-72.3" font-family="Helvetica,sans-Serif" font-size="11.00" fill="#000000">.54</text>
</g>
<!-- Dep_Sx -->
<g id="node13" class="node">
<title>Dep_Sx</title>
<path fill="none" stroke="#000000" stroke-width="1.3" d="M1578.1789,-36C1578.1789,-36 1543.8211,-36 1543.8211,-36 1537.8211,-36 1531.8211,-30 1531.8211,-24 1531.8211,-24 1531.8211,-12 1531.8211,-12 1531.8211,-6 1537.8211,0 1543.8211,0 1543.8211,0 1578.1789,0 1578.1789,0 1584.1789,0 1590.1789,-6 1590.1789,-12 1590.1789,-12 1590.1789,-24 1590.1789,-24 1590.1789,-30 1584.1789,-36 1578.1789,-36"/>
<text text-anchor="middle" x="1561" y="-14.4" font-family="Helvetica,sans-Serif" font-size="12.00" fill="#000000">Dep_Sx</text>
</g>
<!-- Internalizing&#45;&gt;Dep_Sx -->
<g id="edge10" class="edge">
<title>Internalizing&#45;&gt;Dep_Sx</title>
<path fill="none" stroke="#333333" stroke-width="1.6" d="M1561,-114.9462C1561,-96.493 1561,-67.7192 1561,-46.3061"/>
<polygon fill="#333333" stroke="#333333" stroke-width="1.6" points="1564.5001,-46.1683 1561,-36.1684 1557.5001,-46.1684 1564.5001,-46.1683"/>
<text text-anchor="middle" x="1568.6434" y="-72.3" font-family="Helvetica,sans-Serif" font-size="11.00" fill="#000000">.97</text>
</g>
<!-- PTSD_PCS -->
<g id="node14" class="node">
<title>PTSD_PCS</title>
<path fill="none" stroke="#000000" stroke-width="1.3" d="M1763.8391,-36C1763.8391,-36 1708.1609,-36 1708.1609,-36 1702.1609,-36 1696.1609,-30 1696.1609,-24 1696.1609,-24 1696.1609,-12 1696.1609,-12 1696.1609,-6 1702.1609,0 1708.1609,0 1708.1609,0 1763.8391,0 1763.8391,0 1769.8391,0 1775.8391,-6 1775.8391,-12 1775.8391,-12 1775.8391,-24 1775.8391,-24 1775.8391,-30 1769.8391,-36 1763.8391,-36"/>
<text text-anchor="middle" x="1736" y="-14.4" font-family="Helvetica,sans-Serif" font-size="12.00" fill="#000000">PTSD_PCS</text>
</g>
<!-- Internalizing&#45;&gt;PTSD_PCS -->
<g id="edge11" class="edge">
<title>Internalizing&#45;&gt;PTSD_PCS</title>
<path fill="none" stroke="#333333" stroke-width="1.6" d="M1585.333,-117.1819C1614.99,-97.6591 1665.3772,-64.49 1699.6421,-41.9339"/>
<polygon fill="#333333" stroke="#333333" stroke-width="1.6" points="1701.9873,-44.5804 1708.4155,-36.1585 1698.1384,-38.7335 1701.9873,-44.5804"/>
<text text-anchor="middle" x="1660.6434" y="-72.3" font-family="Helvetica,sans-Serif" font-size="11.00" fill="#000000">.96</text>
</g>
<!-- Neurotic -->
<g id="node15" class="node">
<title>Neurotic</title>
<path fill="none" stroke="#000000" stroke-width="1.3" d="M1931.1685,-36C1931.1685,-36 1894.8315,-36 1894.8315,-36 1888.8315,-36 1882.8315,-30 1882.8315,-24 1882.8315,-24 1882.8315,-12 1882.8315,-12 1882.8315,-6 1888.8315,0 1894.8315,0 1894.8315,0 1931.1685,0 1931.1685,0 1937.1685,0 1943.1685,-6 1943.1685,-12 1943.1685,-12 1943.1685,-24 1943.1685,-24 1943.1685,-30 1937.1685,-36 1931.1685,-36"/>
<text text-anchor="middle" x="1913" y="-14.4" font-family="Helvetica,sans-Serif" font-size="12.00" fill="#000000">Neurotic</text>
</g>
<!-- Internalizing&#45;&gt;Neurotic -->
<g id="edge12" class="edge">
<title>Internalizing&#45;&gt;Neurotic</title>
<path fill="none" stroke="#333333" stroke-width="1.6" d="M1598.6702,-120.8716C1665.6111,-98.9637 1804.6755,-53.4517 1873.1488,-31.0422"/>
<polygon fill="#333333" stroke="#333333" stroke-width="1.6" points="1874.3069,-34.346 1882.7222,-27.9091 1872.1295,-27.6932 1874.3069,-34.346"/>
<text text-anchor="middle" x="1754.6434" y="-72.3" font-family="Helvetica,sans-Serif" font-size="11.00" fill="#000000">.70</text>
</g>
<!-- ANX_FS -->
<g id="node16" class="node">
<title>ANX_FS</title>
<path fill="none" stroke="#000000" stroke-width="1.3" d="M1055.1736,-36C1055.1736,-36 1016.8264,-36 1016.8264,-36 1010.8264,-36 1004.8264,-30 1004.8264,-24 1004.8264,-24 1004.8264,-12 1004.8264,-12 1004.8264,-6 1010.8264,0 1016.8264,0 1016.8264,0 1055.1736,0 1055.1736,0 1061.1736,0 1067.1736,-6 1067.1736,-12 1067.1736,-12 1067.1736,-24 1067.1736,-24 1067.1736,-30 1061.1736,-36 1055.1736,-36"/>
<text text-anchor="middle" x="1036" y="-14.4" font-family="Helvetica,sans-Serif" font-size="12.00" fill="#000000">ANX_FS</text>
</g>
<!-- Internalizing&#45;&gt;ANX_FS -->
<g id="edge13" class="edge">
<title>Internalizing&#45;&gt;ANX_FS</title>
<path fill="none" stroke="#333333" stroke-width="1.6" d="M1513.4781,-125.9343C1427.1815,-112.2033 1239.3595,-79.8422 1085,-36 1082.3928,-35.2595 1079.726,-34.4463 1077.0492,-33.5876"/>
<polygon fill="#333333" stroke="#333333" stroke-width="1.6" points="1077.9945,-30.2127 1067.4003,-30.327 1075.7535,-36.8443 1077.9945,-30.2127"/>
<text text-anchor="middle" x="1274.6434" y="-72.3" font-family="Helvetica,sans-Serif" font-size="11.00" fill="#000000">.61</text>
</g>
<!-- OCSymptoms -->
<g id="node17" class="node">
<title>OCSymptoms</title>
<path fill="none" stroke="#000000" stroke-width="1.3" d="M1413.167,-36C1413.167,-36 1346.833,-36 1346.833,-36 1340.833,-36 1334.833,-30 1334.833,-24 1334.833,-24 1334.833,-12 1334.833,-12 1334.833,-6 1340.833,0 1346.833,0 1346.833,0 1413.167,0 1413.167,0 1419.167,0 1425.167,-6 1425.167,-12 1425.167,-12 1425.167,-24 1425.167,-24 1425.167,-30 1419.167,-36 1413.167,-36"/>
<text text-anchor="middle" x="1380" y="-14.4" font-family="Helvetica,sans-Serif" font-size="12.00" fill="#000000">OCSymptoms</text>
</g>
<!-- Internalizing&#45;&gt;OCSymptoms -->
<g id="edge14" class="edge">
<title>Internalizing&#45;&gt;OCSymptoms</title>
<path fill="none" stroke="#333333" stroke-width="1.6" d="M1535.8327,-117.1819C1505.0283,-97.576 1452.6002,-64.2074 1417.1529,-41.6465"/>
<polygon fill="#333333" stroke="#333333" stroke-width="1.6" points="1418.8458,-38.5752 1408.5302,-36.1585 1415.0872,-44.4805 1418.8458,-38.5752"/>
<text text-anchor="middle" x="1482.6434" y="-72.3" font-family="Helvetica,sans-Serif" font-size="11.00" fill="#000000">.60</text>
</g>
<!-- e_FFM -->
<g id="node18" class="node">
<title>e_FFM</title>
<ellipse fill="#dddddd" stroke="#888888" stroke-width=".7" cx="331" cy="-18" rx="10" ry="10"/>
</g>
<!-- e_FFM&#45;&gt;FFM -->
<g id="edge20" class="edge">
<title>e_FFM&#45;&gt;FFM</title>
<path fill="none" stroke="#777777" stroke-width=".9" d="M341.0947,-18C351.9354,-18 369.7433,-18 385.5989,-18"/>
<polygon fill="#777777" stroke="#777777" stroke-width=".9" points="385.789,-20.1001 391.789,-18 385.7889,-15.9001 385.789,-20.1001"/>
<text text-anchor="middle" x="366.5" y="-24.3" font-family="Helvetica,sans-Serif" font-size="11.00" fill="#555555">.72</text>
</g>
<!-- e_AN -->
<g id="node19" class="node">
<title>e_AN</title>
<ellipse fill="#dddddd" stroke="#888888" stroke-width=".7" cx="1113" cy="-18" rx="10" ry="10"/>
</g>
<!-- e_AN&#45;&gt;AN -->
<g id="edge21" class="edge">
<title>e_AN&#45;&gt;AN</title>
<path fill="none" stroke="#777777" stroke-width=".9" d="M1123.0947,-18C1133.9354,-18 1151.7433,-18 1167.5989,-18"/>
<polygon fill="#777777" stroke="#777777" stroke-width=".9" points="1167.789,-20.1001 1173.789,-18 1167.7889,-15.9001 1167.789,-20.1001"/>
<text text-anchor="middle" x="1148.5" y="-24.3" font-family="Helvetica,sans-Serif" font-size="11.00" fill="#555555">.76</text>
</g>
<!-- e_ANX_FS -->
<g id="node20" class="node">
<title>e_ANX_FS</title>
<ellipse fill="#dddddd" stroke="#888888" stroke-width=".7" cx="944" cy="-18" rx="10" ry="10"/>
</g>
<!-- e_ANX_FS&#45;&gt;ANX_FS -->
<g id="edge22" class="edge">
<title>e_ANX_FS&#45;&gt;ANX_FS</title>
<path fill="none" stroke="#777777" stroke-width=".9" d="M954.1971,-18C964.8529,-18 982.2165,-18 998.2113,-18"/>
<polygon fill="#777777" stroke="#777777" stroke-width=".9" points="998.4897,-20.1001 1004.4896,-18 998.4896,-15.9001 998.4897,-20.1001"/>
<text text-anchor="middle" x="979.3318" y="-24.3" font-family="Helvetica,sans-Serif" font-size="11.00" fill="#555555">.62</text>
</g>
<!-- e_BEBROAD -->
<g id="node21" class="node">
<title>e_BEBROAD</title>
<ellipse fill="#dddddd" stroke="#888888" stroke-width=".7" cx="1989" cy="-18" rx="10" ry="10"/>
</g>
<!-- e_BEBROAD&#45;&gt;BEBROAD -->
<g id="edge23" class="edge">
<title>e_BEBROAD&#45;&gt;BEBROAD</title>
<path fill="none" stroke="#777777" stroke-width=".9" d="M1999.1186,-18C2009.7461,-18 2027.1838,-18 2043.7361,-18"/>
<polygon fill="#777777" stroke="#777777" stroke-width=".9" points="2043.7801,-20.1001 2049.7801,-18 2043.7801,-15.9001 2043.7801,-20.1001"/>
<text text-anchor="middle" x="2024.3321" y="-24.3" font-family="Helvetica,sans-Serif" font-size="11.00" fill="#555555">.53</text>
</g>
<!-- e_BMI -->
<g id="node22" class="node">
<title>e_BMI</title>
<ellipse fill="#dddddd" stroke="#888888" stroke-width=".7" cx="779" cy="-18" rx="10" ry="10"/>
</g>
<!-- e_BMI&#45;&gt;BMI -->
<g id="edge24" class="edge">
<title>e_BMI&#45;&gt;BMI</title>
<path fill="none" stroke="#777777" stroke-width=".9" d="M789.1971,-18C800.8638,-18 820.5717,-18 837.72,-18"/>
<polygon fill="#777777" stroke="#777777" stroke-width=".9" points="837.9024,-20.1001 843.9023,-18 837.9023,-15.9001 837.9024,-20.1001"/>
<text text-anchor="middle" x="816.5" y="-24.3" font-family="Helvetica,sans-Serif" font-size="11.00" fill="#555555">&#45;.14</text>
</g>
<!-- e_MDD_WtGain_Case -->
<g id="node23" class="node">
<title>e_MDD_WtGain_Case</title>
<ellipse fill="#dddddd" stroke="#888888" stroke-width=".7" cx="100" cy="-18" rx="10" ry="10"/>
</g>
<!-- e_MDD_WtGain_Case&#45;&gt;MDD_WtGain_Case -->
<g id="edge25" class="edge">
<title>e_MDD_WtGain_Case&#45;&gt;MDD_WtGain_Case</title>
<path fill="none" stroke="#777777" stroke-width=".9" d="M110.0656,-18C120.2344,-18 136.8958,-18 154.3362,-18"/>
<polygon fill="#777777" stroke="#777777" stroke-width=".9" points="154.7864,-20.1001 160.7863,-18 154.7863,-15.9001 154.7864,-20.1001"/>
<text text-anchor="middle" x="135.3332" y="-24.3" font-family="Helvetica,sans-Serif" font-size="11.00" fill="#555555">.53</text>
</g>
<!-- e_MDD_WtLoss_Case -->
<g id="node24" class="node">
<title>e_MDD_WtLoss_Case</title>
<ellipse fill="#dddddd" stroke="#888888" stroke-width=".7" cx="492" cy="-18" rx="10" ry="10"/>
</g>
<!-- e_MDD_WtLoss_Case&#45;&gt;MDD_WtLoss_Case -->
<g id="edge26" class="edge">
<title>e_MDD_WtLoss_Case&#45;&gt;MDD_WtLoss_Case</title>
<path fill="none" stroke="#777777" stroke-width=".9" d="M502.0656,-18C512.2344,-18 528.8958,-18 546.3362,-18"/>
<polygon fill="#777777" stroke="#777777" stroke-width=".9" points="546.7864,-20.1001 552.7863,-18 546.7863,-15.9001 546.7864,-20.1001"/>
<text text-anchor="middle" x="527.3326" y="-24.3" font-family="Helvetica,sans-Serif" font-size="11.00" fill="#555555">.90</text>
</g>
<!-- e_OCSymptoms -->
<g id="node25" class="node">
<title>e_OCSymptoms</title>
<ellipse fill="#dddddd" stroke="#888888" stroke-width=".7" cx="1274" cy="-18" rx="10" ry="10"/>
</g>
<!-- e_OCSymptoms&#45;&gt;OCSymptoms -->
<g id="edge27" class="edge">
<title>e_OCSymptoms&#45;&gt;OCSymptoms</title>
<path fill="none" stroke="#777777" stroke-width=".9" d="M1284.1637,-18C1294.5938,-18 1311.6346,-18 1328.4764,-18"/>
<polygon fill="#777777" stroke="#777777" stroke-width=".9" points="1328.6597,-20.1001 1334.6597,-18 1328.6597,-15.9001 1328.6597,-20.1001"/>
<text text-anchor="middle" x="1309.3334" y="-24.3" font-family="Helvetica,sans-Serif" font-size="11.00" fill="#555555">.64</text>
</g>
<!-- e_PTSD_PCS -->
<g id="node26" class="node">
<title>e_PTSD_PCS</title>
<ellipse fill="#dddddd" stroke="#888888" stroke-width=".7" cx="1636" cy="-18" rx="10" ry="10"/>
</g>
<!-- e_PTSD_PCS&#45;&gt;PTSD_PCS -->
<g id="edge28" class="edge">
<title>e_PTSD_PCS&#45;&gt;PTSD_PCS</title>
<path fill="none" stroke="#777777" stroke-width=".9" d="M1646.3251,-18C1656.7219,-18 1673.5061,-18 1689.7579,-18"/>
<polygon fill="#777777" stroke="#777777" stroke-width=".9" points="1690.1856,-20.1001 1696.1855,-18 1690.1855,-15.9001 1690.1856,-20.1001"/>
<text text-anchor="middle" x="1671.1654" y="-24.3" font-family="Helvetica,sans-Serif" font-size="11.00" fill="#555555">.08</text>
</g>
<!-- e_BMI_Childhood -->
<g id="node27" class="node">
<title>e_BMI_Childhood</title>
<ellipse fill="#dddddd" stroke="#888888" stroke-width=".7" cx="2170" cy="-18" rx="10" ry="10"/>
</g>
<!-- e_BMI_Childhood&#45;&gt;BMI_Childhood -->
<g id="edge29" class="edge">
<title>e_BMI_Childhood&#45;&gt;BMI_Childhood</title>
<path fill="none" stroke="#777777" stroke-width=".9" d="M2180.1514,-18C2190.5252,-18 2207.4856,-18 2224.5087,-18"/>
<polygon fill="#777777" stroke="#777777" stroke-width=".9" points="2224.7712,-20.1001 2230.7712,-18 2224.7711,-15.9001 2224.7712,-20.1001"/>
<text text-anchor="middle" x="2205.4959" y="-24.3" font-family="Helvetica,sans-Serif" font-size="11.00" fill="#555555">.01</text>
</g>
<!-- e_BFP -->
<g id="node28" class="node">
<title>e_BFP</title>
<ellipse fill="#dddddd" stroke="#888888" stroke-width=".7" cx="723" cy="-18" rx="10" ry="10"/>
</g>
<!-- e_BFP&#45;&gt;BFP -->
<g id="edge30" class="edge">
<title>e_BFP&#45;&gt;BFP</title>
<path fill="none" stroke="#777777" stroke-width=".9" d="M719.6141,-27.5702C714.4046,-40.648 703.0513,-63.5754 684.6434,-73.2 678.6226,-76.348 676.1475,-73.4112 669.3566,-73.2 403.4791,-64.9293 331.5161,-94.4009 72,-36 68.0289,-35.1063 63.9517,-33.9077 59.9504,-32.5512"/>
<polygon fill="#777777" stroke="#777777" stroke-width=".9" points="60.5201,-30.5244 54.1634,-30.468 59.0975,-34.4762 60.5201,-30.5244"/>
<text text-anchor="middle" x="677" y="-72.3" font-family="Helvetica,sans-Serif" font-size="11.00" fill="#555555">.36</text>
</g>
<!-- e_Neurotic -->
<g id="node29" class="node">
<title>e_Neurotic</title>
<ellipse fill="#dddddd" stroke="#888888" stroke-width=".7" cx="1822" cy="-18" rx="10" ry="10"/>
</g>
<!-- e_Neurotic&#45;&gt;Neurotic -->
<g id="edge31" class="edge">
<title>e_Neurotic&#45;&gt;Neurotic</title>
<path fill="none" stroke="#777777" stroke-width=".9" d="M1832.0863,-18C1842.7896,-18 1860.3353,-18 1876.3569,-18"/>
<polygon fill="#777777" stroke="#777777" stroke-width=".9" points="1876.6371,-20.1001 1882.6371,-18 1876.637,-15.9001 1876.6371,-20.1001"/>
<text text-anchor="middle" x="1857.3331" y="-24.3" font-family="Helvetica,sans-Serif" font-size="11.00" fill="#555555">.51</text>
</g>
<!-- e_Age_Menarche -->
<g id="node30" class="node">
<title>e_Age_Menarche</title>
<ellipse fill="#dddddd" stroke="#888888" stroke-width=".7" cx="2375" cy="-18" rx="10" ry="10"/>
</g>
<!-- e_Age_Menarche&#45;&gt;Age_Menarche -->
<g id="edge32" class="edge">
<title>e_Age_Menarche&#45;&gt;Age_Menarche</title>
<path fill="none" stroke="#777777" stroke-width=".9" d="M2385.0591,-18C2395.3386,-18 2412.1448,-18 2429.0132,-18"/>
<polygon fill="#777777" stroke="#777777" stroke-width=".9" points="2429.2187,-20.1001 2435.2187,-18 2429.2187,-15.9001 2429.2187,-20.1001"/>
<text text-anchor="middle" x="2410.1603" y="-24.3" font-family="Helvetica,sans-Serif" font-size="11.00" fill="#555555">.81</text>
</g>
<!-- e_Dep_Sx -->
<g id="node31" class="node">
<title>e_Dep_Sx</title>
<ellipse fill="#dddddd" stroke="#888888" stroke-width=".7" cx="1471" cy="-18" rx="10" ry="10"/>
</g>
<!-- e_Dep_Sx&#45;&gt;Dep_Sx -->
<g id="edge33" class="edge">
<title>e_Dep_Sx&#45;&gt;Dep_Sx</title>
<path fill="none" stroke="#777777" stroke-width=".9" d="M1481.3241,-18C1492.0851,-18 1509.5587,-18 1525.404,-18"/>
<polygon fill="#777777" stroke="#777777" stroke-width=".9" points="1525.6085,-20.1001 1531.6085,-18 1525.6084,-15.9001 1525.6085,-20.1001"/>
<text text-anchor="middle" x="1506.3305" y="-24.3" font-family="Helvetica,sans-Serif" font-size="11.00" fill="#555555">.06</text>
</g>
</g>
</svg>
