<?xml version="1.0" encoding="UTF-8" standalone="no"?>
<!DOCTYPE svg PUBLIC "-//W3C//DTD SVG 1.1//EN"
 "http://www.w3.org/Graphics/SVG/1.1/DTD/svg11.dtd">
<!-- Generated by graphviz version 2.40.1 (20161225.0304)
 -->
<!-- Title: pathDiagram Pages: 1 -->
<svg width="1524pt" height="271pt"
 viewBox="0.00 0.00 1523.69 270.80" xmlns="http://www.w3.org/2000/svg" xmlns:xlink="http://www.w3.org/1999/xlink">
<g id="graph0" class="graph" transform="scale(1 1) rotate(0) translate(4 266.8)">
<title>pathDiagram</title>
<polygon fill="#ffffff" stroke="transparent" points="-4,4 -4,-266.8 1519.694,-266.8 1519.694,4 -4,4"/>
<!-- Anthropometric -->
<g id="node1" class="node">
<title>Anthropometric</title>
<ellipse fill="#add8e6" stroke="#000000" cx="577.3538" cy="-169.2" rx="62.3481" ry="18"/>
<text text-anchor="middle" x="577.3538" y="-165.6" font-family="Helvetica,sans-Serif" font-size="12.00" fill="#000000">Anthropometric</text>
</g>
<!-- Development -->
<g id="node2" class="node">
<title>Development</title>
<ellipse fill="#add8e6" stroke="#000000" cx="1192.3538" cy="-169.2" rx="55.2253" ry="18"/>
<text text-anchor="middle" x="1192.3538" y="-165.6" font-family="Helvetica,sans-Serif" font-size="12.00" fill="#000000">Development</text>
</g>
<!-- Anthropometric&#45;&gt;Development -->
<g id="edge15" class="edge">
<title>Anthropometric&#45;&gt;Development</title>
<path fill="none" stroke="#000000" stroke-dasharray="5,2" d="M626.4533,-186.5981C678.2465,-203.9579 762.6236,-229.4386 837.8795,-239.4 951.1006,-254.3867 1082.549,-212.5591 1149.046,-187.1422"/>
<polygon fill="#000000" stroke="#000000" points="627.4507,-183.2407 616.8564,-183.3491 625.206,-189.871 627.4507,-183.2407"/>
<polygon fill="#000000" stroke="#000000" points="1150.3205,-190.4019 1158.3759,-183.5199 1147.787,-183.8765 1150.3205,-190.4019"/>
<text text-anchor="middle" x="847.3538" y="-241.5" font-family="Helvetica,sans-Serif" font-size="11.00" fill="#000000">&#45;.65</text>
</g>
<!-- Internalizing -->
<g id="node3" class="node">
<title>Internalizing</title>
<ellipse fill="#add8e6" stroke="#000000" cx="851.3538" cy="-169.2" rx="51.5575" ry="18"/>
<text text-anchor="middle" x="851.3538" y="-165.6" font-family="Helvetica,sans-Serif" font-size="12.00" fill="#000000">Internalizing</text>
</g>
<!-- Anthropometric&#45;&gt;Internalizing -->
<g id="edge16" class="edge">
<title>Anthropometric&#45;&gt;Internalizing</title>
<path fill="none" stroke="#000000" stroke-dasharray="5,2" d="M649.6758,-169.2C693.1197,-169.2 747.8252,-169.2 789.2963,-169.2"/>
<polygon fill="#000000" stroke="#000000" points="649.5287,-165.7001 639.5286,-169.2 649.5286,-172.7001 649.5287,-165.7001"/>
<polygon fill="#000000" stroke="#000000" points="789.5397,-172.7001 799.5397,-169.2 789.5397,-165.7001 789.5397,-172.7001"/>
<text text-anchor="middle" x="719.6763" y="-175.5" font-family="Helvetica,sans-Serif" font-size="11.00" fill="#000000">.21</text>
</g>
<!-- BMI -->
<g id="node4" class="node">
<title>BMI</title>
<polygon fill="none" stroke="#000000" points="225.3538,-36 171.3538,-36 171.3538,0 225.3538,0 225.3538,-36"/>
<text text-anchor="middle" x="198.3538" y="-14.4" font-family="Helvetica,sans-Serif" font-size="12.00" fill="#000000">BMI</text>
</g>
<!-- Anthropometric&#45;&gt;BMI -->
<g id="edge1" class="edge">
<title>Anthropometric&#45;&gt;BMI</title>
<path fill="none" stroke="#000000" d="M540.6693,-154.5649C468.2798,-125.6855 307.7957,-61.6613 235.2416,-32.7162"/>
<polygon fill="#000000" stroke="#000000" points="236.1909,-29.3267 225.6058,-28.872 233.597,-35.8284 236.1909,-29.3267"/>
<text text-anchor="middle" x="410.0546" y="-90.3" font-family="Helvetica,sans-Serif" font-size="11.00" fill="#000000">1.01</text>
</g>
<!-- Body Fat Percentage -->
<g id="node5" class="node">
<title>Body Fat Percentage</title>
<polygon fill="none" stroke="#000000" points="128.5617,-36 .1459,-36 .1459,0 128.5617,0 128.5617,-36"/>
<text text-anchor="middle" x="64.3538" y="-14.4" font-family="Helvetica,sans-Serif" font-size="12.00" fill="#000000">Body Fat Percentage</text>
</g>
<!-- Anthropometric&#45;&gt;Body Fat Percentage -->
<g id="edge2" class="edge">
<title>Anthropometric&#45;&gt;Body Fat Percentage</title>
<path fill="none" stroke="#000000" d="M533.6157,-156.3088C444.9164,-130.1658 243.1666,-70.7027 135.3682,-38.9306"/>
<polygon fill="#000000" stroke="#000000" points="136.1348,-35.5077 125.5532,-36.0377 134.1558,-42.2221 136.1348,-35.5077"/>
<text text-anchor="middle" x="343.9971" y="-90.3" font-family="Helvetica,sans-Serif" font-size="11.00" fill="#000000">.84</text>
</g>
<!-- Anorexia Nervosa -->
<g id="node6" class="node">
<title>Anorexia Nervosa</title>
<polygon fill="none" stroke="#000000" points="753.2027,-36 641.5049,-36 641.5049,0 753.2027,0 753.2027,-36"/>
<text text-anchor="middle" x="697.3538" y="-14.4" font-family="Helvetica,sans-Serif" font-size="12.00" fill="#000000">Anorexia Nervosa</text>
</g>
<!-- Anthropometric&#45;&gt;Anorexia Nervosa -->
<g id="edge3" class="edge">
<title>Anthropometric&#45;&gt;Anorexia Nervosa</title>
<path fill="none" stroke="#000000" d="M585.4184,-151.2237C593.6478,-133.8789 607.4503,-107.3328 623.4052,-87 636.1181,-70.7989 652.7032,-54.9602 666.9444,-42.5523"/>
<polygon fill="#000000" stroke="#000000" points="669.2468,-45.1887 674.5755,-36.0315 664.6993,-39.867 669.2468,-45.1887"/>
<text text-anchor="middle" x="633.8281" y="-90.3" font-family="Helvetica,sans-Serif" font-size="11.00" fill="#000000">&#45;.37</text>
</g>
<!-- Obsessive–Compulsive Disorder -->
<g id="node7" class="node">
<title>Obsessive–Compulsive Disorder</title>
<polygon fill="none" stroke="#000000" points="599.1973,-36 405.5103,-36 405.5103,0 599.1973,0 599.1973,-36"/>
<text text-anchor="middle" x="502.3538" y="-14.4" font-family="Helvetica,sans-Serif" font-size="12.00" fill="#000000">Obsessive–Compulsive Disorder</text>
</g>
<!-- Anthropometric&#45;&gt;Obsessive–Compulsive Disorder -->
<g id="edge4" class="edge">
<title>Anthropometric&#45;&gt;Obsessive–Compulsive Disorder</title>
<path fill="none" stroke="#000000" d="M557.1031,-151.9699C543.3882,-139.1275 526.0659,-120.3837 516.4052,-100.2 508.3552,-83.3814 504.8485,-62.6809 503.3512,-46.261"/>
<polygon fill="#000000" stroke="#000000" points="506.8343,-45.8977 502.6299,-36.1728 499.8521,-46.397 506.8343,-45.8977"/>
<text text-anchor="middle" x="526.8281" y="-90.3" font-family="Helvetica,sans-Serif" font-size="11.00" fill="#000000">&#45;.32</text>
</g>
<!-- Fat&#45;Free Mass -->
<g id="node8" class="node">
<title>Fat&#45;Free Mass</title>
<polygon fill="none" stroke="#000000" points="362.3526,-36 268.355,-36 268.355,0 362.3526,0 362.3526,-36"/>
<text text-anchor="middle" x="315.3538" y="-14.4" font-family="Helvetica,sans-Serif" font-size="12.00" fill="#000000">Fat&#45;Free Mass</text>
</g>
<!-- Anthropometric&#45;&gt;Fat&#45;Free Mass -->
<g id="edge5" class="edge">
<title>Anthropometric&#45;&gt;Fat&#45;Free Mass</title>
<path fill="none" stroke="#000000" d="M549.3152,-153.019C502.7685,-126.1569 409.3713,-72.2574 355.7289,-41.3005"/>
<polygon fill="#000000" stroke="#000000" points="357.2457,-38.1348 346.835,-36.1678 353.7468,-44.1976 357.2457,-38.1348"/>
<text text-anchor="middle" x="461.9972" y="-90.3" font-family="Helvetica,sans-Serif" font-size="11.00" fill="#000000">.53</text>
</g>
<!-- Age at Menarche -->
<g id="node9" class="node">
<title>Age at Menarche</title>
<polygon fill="none" stroke="#000000" points="1378.2176,-36 1270.49,-36 1270.49,0 1378.2176,0 1378.2176,-36"/>
<text text-anchor="middle" x="1324.3538" y="-14.4" font-family="Helvetica,sans-Serif" font-size="12.00" fill="#000000">Age at Menarche</text>
</g>
<!-- Development&#45;&gt;Age at Menarche -->
<g id="edge6" class="edge">
<title>Development&#45;&gt;Age at Menarche</title>
<path fill="none" stroke="#000000" d="M1207.4959,-151.8554C1230.6209,-125.3668 1274.8817,-74.668 1301.7979,-43.8367"/>
<polygon fill="#000000" stroke="#000000" points="1304.6308,-45.9137 1308.5708,-36.0787 1299.3576,-41.3101 1304.6308,-45.9137"/>
<text text-anchor="middle" x="1268.9972" y="-90.3" font-family="Helvetica,sans-Serif" font-size="11.00" fill="#000000">.42</text>
</g>
<!-- Binge Eating -->
<g id="node10" class="node">
<title>Binge Eating</title>
<polygon fill="none" stroke="#000000" points="1227.3794,-36 1143.3282,-36 1143.3282,0 1227.3794,0 1227.3794,-36"/>
<text text-anchor="middle" x="1185.3538" y="-14.4" font-family="Helvetica,sans-Serif" font-size="12.00" fill="#000000">Binge Eating</text>
</g>
<!-- Development&#45;&gt;Binge Eating -->
<g id="edge7" class="edge">
<title>Development&#45;&gt;Binge Eating</title>
<path fill="none" stroke="#000000" d="M1191.5094,-150.9617C1190.3059,-124.9655 1188.0861,-77.0168 1186.6668,-46.3608"/>
<polygon fill="#000000" stroke="#000000" points="1190.16,-46.1303 1186.2012,-36.3029 1183.1675,-46.4541 1190.16,-46.1303"/>
<text text-anchor="middle" x="1197.8281" y="-90.3" font-family="Helvetica,sans-Serif" font-size="11.00" fill="#000000">&#45;.56</text>
</g>
<!-- Childhood BMI -->
<g id="node11" class="node">
<title>Childhood BMI</title>
<polygon fill="none" stroke="#000000" points="1515.5347,-36 1421.1729,-36 1421.1729,0 1515.5347,0 1515.5347,-36"/>
<text text-anchor="middle" x="1468.3538" y="-14.4" font-family="Helvetica,sans-Serif" font-size="12.00" fill="#000000">Childhood BMI</text>
</g>
<!-- Development&#45;&gt;Childhood BMI -->
<g id="edge8" class="edge">
<title>Development&#45;&gt;Childhood BMI</title>
<path fill="none" stroke="#000000" d="M1220.8511,-153.5884C1269.6456,-126.8576 1369.4159,-72.2008 1426.2544,-41.0632"/>
<polygon fill="#000000" stroke="#000000" points="1428.243,-43.9646 1435.3316,-36.0904 1424.8798,-37.8254 1428.243,-43.9646"/>
<text text-anchor="middle" x="1347.8281" y="-90.3" font-family="Helvetica,sans-Serif" font-size="11.00" fill="#000000">&#45;.95</text>
</g>
<!-- Internalizing&#45;&gt;Anorexia Nervosa -->
<g id="edge12" class="edge">
<title>Internalizing&#45;&gt;Anorexia Nervosa</title>
<path fill="none" stroke="#000000" d="M833.9874,-152.1494C807.0113,-125.6637 754.8742,-74.4746 723.3841,-43.557"/>
<polygon fill="#000000" stroke="#000000" points="725.4386,-40.6692 715.8509,-36.1608 720.5345,-45.6642 725.4386,-40.6692"/>
<text text-anchor="middle" x="785.9971" y="-90.3" font-family="Helvetica,sans-Serif" font-size="11.00" fill="#000000">.40</text>
</g>
<!-- Internalizing&#45;&gt;Obsessive–Compulsive Disorder -->
<g id="edge11" class="edge">
<title>Internalizing&#45;&gt;Obsessive–Compulsive Disorder</title>
<path fill="none" stroke="#000000" d="M818.8341,-155.1112C757.9423,-128.7306 626.3152,-71.7048 553.459,-40.1407"/>
<polygon fill="#000000" stroke="#000000" points="554.5801,-36.8121 544.0128,-36.0483 551.7973,-43.2352 554.5801,-36.8121"/>
<text text-anchor="middle" x="693.9971" y="-90.3" font-family="Helvetica,sans-Serif" font-size="11.00" fill="#000000">.25</text>
</g>
<!-- Internalizing&#45;&gt;Binge Eating -->
<g id="edge13" class="edge">
<title>Internalizing&#45;&gt;Binge Eating</title>
<path fill="none" stroke="#000000" d="M883.0768,-154.8392C941.475,-128.4026 1066.3702,-71.8632 1135.9543,-40.3629"/>
<polygon fill="#000000" stroke="#000000" points="1137.7266,-43.4026 1145.3931,-36.09 1134.8397,-37.0256 1137.7266,-43.4026"/>
<text text-anchor="middle" x="1035.9972" y="-90.3" font-family="Helvetica,sans-Serif" font-size="11.00" fill="#000000">.43</text>
</g>
<!-- MDD -->
<g id="node12" class="node">
<title>MDD</title>
<polygon fill="none" stroke="#000000" points="1003.3538,-36 949.3538,-36 949.3538,0 1003.3538,0 1003.3538,-36"/>
<text text-anchor="middle" x="976.3538" y="-14.4" font-family="Helvetica,sans-Serif" font-size="12.00" fill="#000000">MDD</text>
</g>
<!-- Internalizing&#45;&gt;MDD -->
<g id="edge9" class="edge">
<title>Internalizing&#45;&gt;MDD</title>
<path fill="none" stroke="#000000" d="M865.6929,-151.8554C887.5915,-125.3668 929.5052,-74.668 954.9941,-43.8367"/>
<polygon fill="#000000" stroke="#000000" points="957.7336,-46.0161 961.4078,-36.0787 952.3385,-41.5558 957.7336,-46.0161"/>
<text text-anchor="middle" x="924.9972" y="-90.3" font-family="Helvetica,sans-Serif" font-size="11.00" fill="#000000">.90</text>
</g>
<!-- PTSD -->
<g id="node13" class="node">
<title>PTSD</title>
<polygon fill="none" stroke="#000000" points="1100.3538,-36 1046.3538,-36 1046.3538,0 1100.3538,0 1100.3538,-36"/>
<text text-anchor="middle" x="1073.3538" y="-14.4" font-family="Helvetica,sans-Serif" font-size="12.00" fill="#000000">PTSD</text>
</g>
<!-- Internalizing&#45;&gt;PTSD -->
<g id="edge10" class="edge">
<title>Internalizing&#45;&gt;PTSD</title>
<path fill="none" stroke="#000000" d="M875.1117,-153.019C914.3076,-126.3234 992.7106,-72.9245 1038.2937,-41.8787"/>
<polygon fill="#000000" stroke="#000000" points="1040.384,-44.6898 1046.6789,-36.1678 1036.4435,-38.9043 1040.384,-44.6898"/>
<text text-anchor="middle" x="975.9972" y="-90.3" font-family="Helvetica,sans-Serif" font-size="11.00" fill="#000000">.99</text>
</g>
<!-- Anxiety Disorders -->
<g id="node14" class="node">
<title>Anxiety Disorders</title>
<polygon fill="none" stroke="#000000" points="906.3582,-36 796.3494,-36 796.3494,0 906.3582,0 906.3582,-36"/>
<text text-anchor="middle" x="851.3538" y="-14.4" font-family="Helvetica,sans-Serif" font-size="12.00" fill="#000000">Anxiety Disorders</text>
</g>
<!-- Internalizing&#45;&gt;Anxiety Disorders -->
<g id="edge14" class="edge">
<title>Internalizing&#45;&gt;Anxiety Disorders</title>
<path fill="none" stroke="#000000" d="M851.3538,-150.9617C851.3538,-124.9655 851.3538,-77.0168 851.3538,-46.3608"/>
<polygon fill="#000000" stroke="#000000" points="854.8539,-46.3029 851.3538,-36.3029 847.8539,-46.303 854.8539,-46.3029"/>
<text text-anchor="middle" x="858.9972" y="-90.3" font-family="Helvetica,sans-Serif" font-size="11.00" fill="#000000">.80</text>
</g>
</g>
</svg>
