<?xml version="1.0" encoding="UTF-8" standalone="no"?>
<!DOCTYPE svg PUBLIC "-//W3C//DTD SVG 1.1//EN"
 "http://www.w3.org/Graphics/SVG/1.1/DTD/svg11.dtd">
<!-- Generated by graphviz version 2.40.1 (20161225.0304)
 -->
<!-- Title: pathDiagram Pages: 1 -->
<svg width="1371pt" height="271pt"
 viewBox="0.00 0.00 1370.69 270.80" xmlns="http://www.w3.org/2000/svg" xmlns:xlink="http://www.w3.org/1999/xlink">
<g id="graph0" class="graph" transform="scale(1 1) rotate(0) translate(4 266.8)">
<title>pathDiagram</title>
<polygon fill="#ffffff" stroke="transparent" points="-4,4 -4,-266.8 1366.694,-266.8 1366.694,4 -4,4"/>
<!-- Anthropometric -->
<g id="node1" class="node">
<title>Anthropometric</title>
<ellipse fill="#add8e6" stroke="#000000" cx="550.3538" cy="-169.2" rx="62.3481" ry="18"/>
<text text-anchor="middle" x="550.3538" y="-165.6" font-family="Helvetica,sans-Serif" font-size="12.00" fill="#000000">Anthropometric</text>
</g>
<!-- Development -->
<g id="node2" class="node">
<title>Development</title>
<ellipse fill="#add8e6" stroke="#000000" cx="1042.3538" cy="-169.2" rx="55.2253" ry="18"/>
<text text-anchor="middle" x="1042.3538" y="-165.6" font-family="Helvetica,sans-Serif" font-size="12.00" fill="#000000">Development</text>
</g>
<!-- Anthropometric&#45;&gt;Development -->
<g id="edge14" class="edge">
<title>Anthropometric&#45;&gt;Development</title>
<path fill="none" stroke="#000000" stroke-dasharray="5,2" d="M596.1511,-187.6293C641.8226,-204.944 714.416,-229.6128 779.8795,-239.4 861.6169,-251.6202 954.4172,-214.2307 1004.8506,-189.4138"/>
<polygon fill="#000000" stroke="#000000" points="597.1361,-184.2586 586.5459,-183.9455 594.6294,-190.7944 597.1361,-184.2586"/>
<polygon fill="#000000" stroke="#000000" points="1006.6941,-192.4047 1014.0595,-184.7889 1003.5524,-186.1493 1006.6941,-192.4047"/>
<text text-anchor="middle" x="789.3538" y="-241.5" font-family="Helvetica,sans-Serif" font-size="11.00" fill="#000000">&#45;.65</text>
</g>
<!-- Internalizing -->
<g id="node3" class="node">
<title>Internalizing</title>
<ellipse fill="#add8e6" stroke="#000000" cx="778.3538" cy="-169.2" rx="51.5575" ry="18"/>
<text text-anchor="middle" x="778.3538" y="-165.6" font-family="Helvetica,sans-Serif" font-size="12.00" fill="#000000">Internalizing</text>
</g>
<!-- Anthropometric&#45;&gt;Internalizing -->
<g id="edge15" class="edge">
<title>Anthropometric&#45;&gt;Internalizing</title>
<path fill="none" stroke="#000000" stroke-dasharray="5,2" d="M622.9161,-169.2C652.921,-169.2 687.3591,-169.2 716.1818,-169.2"/>
<polygon fill="#000000" stroke="#000000" points="622.6558,-165.7001 612.6558,-169.2 622.6558,-172.7001 622.6558,-165.7001"/>
<polygon fill="#000000" stroke="#000000" points="716.528,-172.7001 726.528,-169.2 716.5279,-165.7001 716.528,-172.7001"/>
<text text-anchor="middle" x="669.6763" y="-175.5" font-family="Helvetica,sans-Serif" font-size="11.00" fill="#000000">.21</text>
</g>
<!-- BMI -->
<g id="node4" class="node">
<title>BMI</title>
<polygon fill="none" stroke="#000000" points="225.3538,-36 171.3538,-36 171.3538,0 225.3538,0 225.3538,-36"/>
<text text-anchor="middle" x="198.3538" y="-14.4" font-family="Helvetica,sans-Serif" font-size="12.00" fill="#000000">BMI</text>
</g>
<!-- Anthropometric&#45;&gt;BMI -->
<g id="edge1" class="edge">
<title>Anthropometric&#45;&gt;BMI</title>
<path fill="none" stroke="#000000" d="M515.3158,-154.1496C448.5211,-125.4582 303.5543,-63.1884 235.3003,-33.8702"/>
<polygon fill="#000000" stroke="#000000" points="236.3748,-30.5225 225.8052,-29.7916 233.612,-36.9543 236.3748,-30.5225"/>
<text text-anchor="middle" x="396.0546" y="-90.3" font-family="Helvetica,sans-Serif" font-size="11.00" fill="#000000">1.01</text>
</g>
<!-- Body Fat Percentage -->
<g id="node5" class="node">
<title>Body Fat Percentage</title>
<polygon fill="none" stroke="#000000" points="128.5617,-36 .1459,-36 .1459,0 128.5617,0 128.5617,-36"/>
<text text-anchor="middle" x="64.3538" y="-14.4" font-family="Helvetica,sans-Serif" font-size="12.00" fill="#000000">Body Fat Percentage</text>
</g>
<!-- Anthropometric&#45;&gt;Body Fat Percentage -->
<g id="edge2" class="edge">
<title>Anthropometric&#45;&gt;Body Fat Percentage</title>
<path fill="none" stroke="#000000" d="M507.6505,-155.9145C423.056,-129.5962 233.5878,-70.6506 131.906,-39.0162"/>
<polygon fill="#000000" stroke="#000000" points="132.9346,-35.6709 122.3463,-36.0421 130.8551,-42.3549 132.9346,-35.6709"/>
<text text-anchor="middle" x="329.9971" y="-90.3" font-family="Helvetica,sans-Serif" font-size="11.00" fill="#000000">.84</text>
</g>
<!-- Anorexia Nervosa -->
<g id="node6" class="node">
<title>Anorexia Nervosa</title>
<polygon fill="none" stroke="#000000" points="753.2027,-36 641.5049,-36 641.5049,0 753.2027,0 753.2027,-36"/>
<text text-anchor="middle" x="697.3538" y="-14.4" font-family="Helvetica,sans-Serif" font-size="12.00" fill="#000000">Anorexia Nervosa</text>
</g>
<!-- Anthropometric&#45;&gt;Anorexia Nervosa -->
<g id="edge3" class="edge">
<title>Anthropometric&#45;&gt;Anorexia Nervosa</title>
<path fill="none" stroke="#000000" d="M559.1957,-151.1758C568.4017,-133.5535 584.0309,-106.5882 602.4052,-87 618.5788,-69.7578 639.5935,-53.9724 657.7396,-41.8646"/>
<polygon fill="#000000" stroke="#000000" points="659.9203,-44.6209 666.3835,-36.2259 656.0957,-38.7581 659.9203,-44.6209"/>
<text text-anchor="middle" x="612.8281" y="-90.3" font-family="Helvetica,sans-Serif" font-size="11.00" fill="#000000">&#45;.37</text>
</g>
<!-- Obsessive–Compulsive Disorder -->
<g id="node7" class="node">
<title>Obsessive–Compulsive Disorder</title>
<polygon fill="none" stroke="#000000" points="599.1973,-36 405.5103,-36 405.5103,0 599.1973,0 599.1973,-36"/>
<text text-anchor="middle" x="502.3538" y="-14.4" font-family="Helvetica,sans-Serif" font-size="12.00" fill="#000000">Obsessive–Compulsive Disorder</text>
</g>
<!-- Anthropometric&#45;&gt;Obsessive–Compulsive Disorder -->
<g id="edge4" class="edge">
<title>Anthropometric&#45;&gt;Obsessive–Compulsive Disorder</title>
<path fill="none" stroke="#000000" d="M534.9823,-151.57C524.5181,-138.3948 511.5017,-119.4144 505.4052,-100.2 499.931,-82.9469 499.1295,-62.6278 499.7156,-46.5082"/>
<polygon fill="#000000" stroke="#000000" points="503.2334,-46.2902 500.3027,-36.1087 496.2445,-45.8955 503.2334,-46.2902"/>
<text text-anchor="middle" x="515.8281" y="-90.3" font-family="Helvetica,sans-Serif" font-size="11.00" fill="#000000">&#45;.32</text>
</g>
<!-- Fat&#45;Free Mass -->
<g id="node8" class="node">
<title>Fat&#45;Free Mass</title>
<polygon fill="none" stroke="#000000" points="362.3526,-36 268.355,-36 268.355,0 362.3526,0 362.3526,-36"/>
<text text-anchor="middle" x="315.3538" y="-14.4" font-family="Helvetica,sans-Serif" font-size="12.00" fill="#000000">Fat&#45;Free Mass</text>
</g>
<!-- Anthropometric&#45;&gt;Fat&#45;Free Mass -->
<g id="edge5" class="edge">
<title>Anthropometric&#45;&gt;Fat&#45;Free Mass</title>
<path fill="none" stroke="#000000" d="M524.7573,-152.7311C482.9856,-125.855 400.015,-72.4714 352.0042,-41.581"/>
<polygon fill="#000000" stroke="#000000" points="353.7677,-38.5538 343.4641,-36.0863 349.98,-44.4406 353.7677,-38.5538"/>
<text text-anchor="middle" x="447.9972" y="-90.3" font-family="Helvetica,sans-Serif" font-size="11.00" fill="#000000">.53</text>
</g>
<!-- Age at Menarche -->
<g id="node9" class="node">
<title>Age at Menarche</title>
<polygon fill="none" stroke="#000000" points="1225.2176,-36 1117.49,-36 1117.49,0 1225.2176,0 1225.2176,-36"/>
<text text-anchor="middle" x="1171.3538" y="-14.4" font-family="Helvetica,sans-Serif" font-size="12.00" fill="#000000">Age at Menarche</text>
</g>
<!-- Development&#45;&gt;Age at Menarche -->
<g id="edge6" class="edge">
<title>Development&#45;&gt;Age at Menarche</title>
<path fill="none" stroke="#000000" d="M1057.4042,-151.5595C1079.9781,-125.1008 1122.7475,-74.9711 1148.984,-44.2194"/>
<polygon fill="#000000" stroke="#000000" points="1151.7675,-46.3495 1155.5954,-36.4704 1146.4422,-41.8062 1151.7675,-46.3495"/>
<text text-anchor="middle" x="1117.9972" y="-90.3" font-family="Helvetica,sans-Serif" font-size="11.00" fill="#000000">.42</text>
</g>
<!-- Binge Eating -->
<g id="node10" class="node">
<title>Binge Eating</title>
<polygon fill="none" stroke="#000000" points="1074.3794,-36 990.3282,-36 990.3282,0 1074.3794,0 1074.3794,-36"/>
<text text-anchor="middle" x="1032.3538" y="-14.4" font-family="Helvetica,sans-Serif" font-size="12.00" fill="#000000">Binge Eating</text>
</g>
<!-- Development&#45;&gt;Binge Eating -->
<g id="edge7" class="edge">
<title>Development&#45;&gt;Binge Eating</title>
<path fill="none" stroke="#000000" d="M1041.1476,-150.9617C1039.4282,-124.9655 1036.257,-77.0168 1034.2295,-46.3608"/>
<polygon fill="#000000" stroke="#000000" points="1037.7167,-46.0501 1033.5643,-36.3029 1030.732,-46.5121 1037.7167,-46.0501"/>
<text text-anchor="middle" x="1046.8281" y="-90.3" font-family="Helvetica,sans-Serif" font-size="11.00" fill="#000000">&#45;.56</text>
</g>
<!-- Childhood BMI -->
<g id="node11" class="node">
<title>Childhood BMI</title>
<polygon fill="none" stroke="#000000" points="1362.5347,-36 1268.1729,-36 1268.1729,0 1362.5347,0 1362.5347,-36"/>
<text text-anchor="middle" x="1315.3538" y="-14.4" font-family="Helvetica,sans-Serif" font-size="12.00" fill="#000000">Childhood BMI</text>
</g>
<!-- Development&#45;&gt;Childhood BMI -->
<g id="edge8" class="edge">
<title>Development&#45;&gt;Childhood BMI</title>
<path fill="none" stroke="#000000" d="M1070.5414,-153.5884C1118.8054,-126.8576 1217.4913,-72.2008 1273.712,-41.0632"/>
<polygon fill="#000000" stroke="#000000" points="1275.6384,-43.9972 1282.6906,-36.0904 1272.2469,-37.8737 1275.6384,-43.9972"/>
<text text-anchor="middle" x="1195.8281" y="-90.3" font-family="Helvetica,sans-Serif" font-size="11.00" fill="#000000">&#45;.95</text>
</g>
<!-- Internalizing&#45;&gt;Anorexia Nervosa -->
<g id="edge12" class="edge">
<title>Internalizing&#45;&gt;Anorexia Nervosa</title>
<path fill="none" stroke="#000000" d="M768.744,-151.2616C754.6922,-125.0317 728.4262,-76.0018 711.9711,-45.2857"/>
<polygon fill="#000000" stroke="#000000" points="715.0112,-43.5486 707.2037,-36.3866 708.8408,-46.8542 715.0112,-43.5486"/>
<text text-anchor="middle" x="746.9971" y="-90.3" font-family="Helvetica,sans-Serif" font-size="11.00" fill="#000000">.40</text>
</g>
<!-- Internalizing&#45;&gt;Obsessive–Compulsive Disorder -->
<g id="edge11" class="edge">
<title>Internalizing&#45;&gt;Obsessive–Compulsive Disorder</title>
<path fill="none" stroke="#000000" d="M750.6262,-154.0101C702.097,-127.4245 601.5041,-72.3171 544.3781,-41.022"/>
<polygon fill="#000000" stroke="#000000" points="546.0494,-37.9468 535.5976,-36.2118 542.6862,-44.086 546.0494,-37.9468"/>
<text text-anchor="middle" x="656.9971" y="-90.3" font-family="Helvetica,sans-Serif" font-size="11.00" fill="#000000">.25</text>
</g>
<!-- Internalizing&#45;&gt;Binge Eating -->
<g id="edge13" class="edge">
<title>Internalizing&#45;&gt;Binge Eating</title>
<path fill="none" stroke="#000000" d="M804.5796,-153.5884C849.392,-126.9127 940.9238,-72.426 993.2861,-41.2561"/>
<polygon fill="#000000" stroke="#000000" points="995.1613,-44.213 1001.9638,-36.0904 991.5807,-38.1981 995.1613,-44.213"/>
<text text-anchor="middle" x="919.9972" y="-90.3" font-family="Helvetica,sans-Serif" font-size="11.00" fill="#000000">.43</text>
</g>
<!-- MDD -->
<g id="node12" class="node">
<title>MDD</title>
<polygon fill="none" stroke="#000000" points="850.3538,-36 796.3538,-36 796.3538,0 850.3538,0 850.3538,-36"/>
<text text-anchor="middle" x="823.3538" y="-14.4" font-family="Helvetica,sans-Serif" font-size="12.00" fill="#000000">MDD</text>
</g>
<!-- Internalizing&#45;&gt;MDD -->
<g id="edge9" class="edge">
<title>Internalizing&#45;&gt;MDD</title>
<path fill="none" stroke="#000000" d="M783.6926,-151.2616C791.4318,-125.2579 805.8403,-76.8454 814.9954,-46.0841"/>
<polygon fill="#000000" stroke="#000000" points="818.3836,-46.9695 817.8816,-36.3866 811.6744,-44.9727 818.3836,-46.9695"/>
<text text-anchor="middle" x="808.9971" y="-90.3" font-family="Helvetica,sans-Serif" font-size="11.00" fill="#000000">.90</text>
</g>
<!-- PTSD -->
<g id="node13" class="node">
<title>PTSD</title>
<polygon fill="none" stroke="#000000" points="947.3538,-36 893.3538,-36 893.3538,0 947.3538,0 947.3538,-36"/>
<text text-anchor="middle" x="920.3538" y="-14.4" font-family="Helvetica,sans-Serif" font-size="12.00" fill="#000000">PTSD</text>
</g>
<!-- Internalizing&#45;&gt;PTSD -->
<g id="edge10" class="edge">
<title>Internalizing&#45;&gt;PTSD</title>
<path fill="none" stroke="#000000" d="M794.643,-151.8554C819.6257,-125.2541 867.5395,-74.2361 896.4578,-43.4442"/>
<polygon fill="#000000" stroke="#000000" points="899.0806,-45.7641 903.3751,-36.0787 893.978,-40.972 899.0806,-45.7641"/>
<text text-anchor="middle" x="864.0546" y="-90.3" font-family="Helvetica,sans-Serif" font-size="11.00" fill="#000000">1.00</text>
</g>
</g>
</svg>
