<?xml version="1.0" encoding="UTF-8" standalone="no"?>
<!DOCTYPE svg PUBLIC "-//W3C//DTD SVG 1.1//EN"
 "http://www.w3.org/Graphics/SVG/1.1/DTD/svg11.dtd">
<!-- Generated by graphviz version 2.40.1 (20161225.0304)
 -->
<!-- Title: G Pages: 1 -->
<svg width="1829pt" height="217pt"
 viewBox="0.00 0.00 1828.68 216.80" xmlns="http://www.w3.org/2000/svg" xmlns:xlink="http://www.w3.org/1999/xlink">
<g id="graph0" class="graph" transform="scale(1 1) rotate(0) translate(4 212.8)">
<title>G</title>
<polygon fill="#ffffff" stroke="transparent" points="-4,4 -4,-212.8 1824.6794,-212.8 1824.6794,4 -4,4"/>
<!-- Anthropometric -->
<g id="node1" class="node">
<title>Anthropometric</title>
<ellipse fill="#b7d4e8" stroke="#000000" stroke-width="1.6" cx="420" cy="-133.2" rx="62.3481" ry="18"/>
<text text-anchor="middle" x="420" y="-129.6" font-family="Helvetica,sans-Serif" font-size="12.00" fill="#000000">Anthropometric</text>
</g>
<!-- Development -->
<g id="node2" class="node">
<title>Development</title>
<ellipse fill="#b7d4e8" stroke="#000000" stroke-width="1.6" cx="1568" cy="-133.2" rx="55.2253" ry="18"/>
<text text-anchor="middle" x="1568" y="-129.6" font-family="Helvetica,sans-Serif" font-size="12.00" fill="#000000">Development</text>
</g>
<!-- Anthropometric&#45;&gt;Development -->
<g id="edge16" class="edge">
<title>Anthropometric&#45;&gt;Development</title>
<path fill="none" stroke="#666666" stroke-width="1.2" stroke-dasharray="5,2" d="M480.1016,-144.5596C586.1668,-163.3297 813.5919,-197.8577 1006.4743,-188.4 1190.0874,-179.3968 1406.2604,-153.9291 1508.5814,-140.9747"/>
<polygon fill="#666666" stroke="#666666" stroke-width="1.2" points="480.4292,-141.7739 472.0618,-143.1258 479.4459,-147.287 480.4292,-141.7739"/>
<polygon fill="#666666" stroke="#666666" stroke-width="1.2" points="1509.0579,-143.7368 1516.641,-139.9504 1508.3518,-138.1815 1509.0579,-143.7368"/>
<text text-anchor="middle" x="997" y="-187.5" font-family="Helvetica,sans-Serif" font-size="11.00" fill="#000000">&#45;.65</text>
</g>
<!-- Internalizing -->
<g id="node3" class="node">
<title>Internalizing</title>
<ellipse fill="#b7d4e8" stroke="#000000" stroke-width="1.6" cx="968" cy="-133.2" rx="51.5575" ry="18"/>
<text text-anchor="middle" x="968" y="-129.6" font-family="Helvetica,sans-Serif" font-size="12.00" fill="#000000">Internalizing</text>
</g>
<!-- Anthropometric&#45;&gt;Internalizing -->
<g id="edge17" class="edge">
<title>Anthropometric&#45;&gt;Internalizing</title>
<path fill="none" stroke="#666666" stroke-width="1.2" stroke-dasharray="5,2" d="M490.523,-133.2C599.3548,-133.2 806.3001,-133.2 908.2271,-133.2"/>
<polygon fill="#666666" stroke="#666666" stroke-width="1.2" points="490.3291,-130.4001 482.329,-133.2 490.329,-136.0001 490.3291,-130.4001"/>
<polygon fill="#666666" stroke="#666666" stroke-width="1.2" points="908.273,-136.0001 916.273,-133.2 908.273,-130.4001 908.273,-136.0001"/>
<text text-anchor="middle" x="699.3225" y="-139.5" font-family="Helvetica,sans-Serif" font-size="11.00" fill="#000000">.21</text>
</g>
<!-- BMI -->
<g id="node4" class="node">
<title>BMI</title>
<path fill="none" stroke="#000000" stroke-width="1.3" d="M274,-36C274,-36 244,-36 244,-36 238,-36 232,-30 232,-24 232,-24 232,-12 232,-12 232,-6 238,0 244,0 244,0 274,0 274,0 280,0 286,-6 286,-12 286,-12 286,-24 286,-24 286,-30 280,-36 274,-36"/>
<text text-anchor="middle" x="259" y="-14.4" font-family="Helvetica,sans-Serif" font-size="12.00" fill="#000000">BMI</text>
</g>
<!-- Anthropometric&#45;&gt;BMI -->
<g id="edge1" class="edge">
<title>Anthropometric&#45;&gt;BMI</title>
<path fill="none" stroke="#333333" stroke-width="1.6" d="M396.5892,-116.4489C369.246,-96.8841 323.7978,-64.3646 292.6707,-42.0924"/>
<polygon fill="#333333" stroke="#333333" stroke-width="1.6" points="294.4673,-39.0742 284.298,-36.1015 290.3939,-44.767 294.4673,-39.0742"/>
<text text-anchor="middle" x="355.7008" y="-72.3" font-family="Helvetica,sans-Serif" font-size="11.00" fill="#000000">1.01</text>
</g>
<!-- BFP -->
<g id="node5" class="node">
<title>BFP</title>
<path fill="none" stroke="#000000" stroke-width="1.3" d="M435,-36C435,-36 405,-36 405,-36 399,-36 393,-30 393,-24 393,-24 393,-12 393,-12 393,-6 399,0 405,0 405,0 435,0 435,0 441,0 447,-6 447,-12 447,-12 447,-24 447,-24 447,-30 441,-36 435,-36"/>
<text text-anchor="middle" x="420" y="-14.4" font-family="Helvetica,sans-Serif" font-size="12.00" fill="#000000">BFP</text>
</g>
<!-- Anthropometric&#45;&gt;BFP -->
<g id="edge2" class="edge">
<title>Anthropometric&#45;&gt;BFP</title>
<path fill="none" stroke="#333333" stroke-width="1.6" d="M420,-114.9462C420,-96.493 420,-67.7192 420,-46.3061"/>
<polygon fill="#333333" stroke="#333333" stroke-width="1.6" points="423.5001,-46.1683 420,-36.1684 416.5001,-46.1684 423.5001,-46.1683"/>
<text text-anchor="middle" x="427.6434" y="-72.3" font-family="Helvetica,sans-Serif" font-size="11.00" fill="#000000">.84</text>
</g>
<!-- AN -->
<g id="node6" class="node">
<title>AN</title>
<path fill="none" stroke="#000000" stroke-width="1.3" d="M596,-36C596,-36 566,-36 566,-36 560,-36 554,-30 554,-24 554,-24 554,-12 554,-12 554,-6 560,0 566,0 566,0 596,0 596,0 602,0 608,-6 608,-12 608,-12 608,-24 608,-24 608,-30 602,-36 596,-36"/>
<text text-anchor="middle" x="581" y="-14.4" font-family="Helvetica,sans-Serif" font-size="12.00" fill="#000000">AN</text>
</g>
<!-- Anthropometric&#45;&gt;AN -->
<g id="edge3" class="edge">
<title>Anthropometric&#45;&gt;AN</title>
<path fill="none" stroke="#333333" stroke-width="1.6" d="M443.4108,-116.4489C470.754,-96.8841 516.2022,-64.3646 547.3293,-42.0924"/>
<polygon fill="#333333" stroke="#333333" stroke-width="1.6" points="549.6061,-44.767 555.702,-36.1015 545.5327,-39.0742 549.6061,-44.767"/>
<text text-anchor="middle" x="515.4743" y="-72.3" font-family="Helvetica,sans-Serif" font-size="11.00" fill="#000000">&#45;.37</text>
</g>
<!-- OCD -->
<g id="node7" class="node">
<title>OCD</title>
<path fill="none" stroke="#000000" stroke-width="1.3" d="M813,-36C813,-36 783,-36 783,-36 777,-36 771,-30 771,-24 771,-24 771,-12 771,-12 771,-6 777,0 783,0 783,0 813,0 813,0 819,0 825,-6 825,-12 825,-12 825,-24 825,-24 825,-30 819,-36 813,-36"/>
<text text-anchor="middle" x="798" y="-14.4" font-family="Helvetica,sans-Serif" font-size="12.00" fill="#000000">OCD</text>
</g>
<!-- Anthropometric&#45;&gt;OCD -->
<g id="edge4" class="edge">
<title>Anthropometric&#45;&gt;OCD</title>
<path fill="none" stroke="#333333" stroke-width="1.6" d="M462.9934,-120.0973C537.873,-97.2768 690.931,-50.6305 761.2197,-29.2092"/>
<polygon fill="#333333" stroke="#333333" stroke-width="1.6" points="762.4251,-32.5009 770.9704,-26.2376 760.3844,-25.8049 762.4251,-32.5009"/>
<text text-anchor="middle" x="630.4743" y="-72.3" font-family="Helvetica,sans-Serif" font-size="11.00" fill="#000000">&#45;.32</text>
</g>
<!-- FFM -->
<g id="node8" class="node">
<title>FFM</title>
<path fill="none" stroke="#000000" stroke-width="1.3" d="M113,-36C113,-36 83,-36 83,-36 77,-36 71,-30 71,-24 71,-24 71,-12 71,-12 71,-6 77,0 83,0 83,0 113,0 113,0 119,0 125,-6 125,-12 125,-12 125,-24 125,-24 125,-30 119,-36 113,-36"/>
<text text-anchor="middle" x="98" y="-14.4" font-family="Helvetica,sans-Serif" font-size="12.00" fill="#000000">FFM</text>
</g>
<!-- Anthropometric&#45;&gt;FFM -->
<g id="edge5" class="edge">
<title>Anthropometric&#45;&gt;FFM</title>
<path fill="none" stroke="#333333" stroke-width="1.6" d="M378.9689,-119.4186C324.7198,-101.0569 226.2646,-67.2453 143,-36 140.2673,-34.9746 137.449,-33.8965 134.6185,-32.799"/>
<polygon fill="#333333" stroke="#333333" stroke-width="1.6" points="135.6414,-29.4405 125.0541,-29.0404 133.0811,-35.9555 135.6414,-29.4405"/>
<text text-anchor="middle" x="272.6434" y="-72.3" font-family="Helvetica,sans-Serif" font-size="11.00" fill="#000000">.53</text>
</g>
<!-- Development&#45;&gt;Internalizing -->
<g id="edge15" class="edge">
<title>Development&#45;&gt;Internalizing</title>
<path fill="none" stroke="#666666" stroke-width="1.2" stroke-dasharray="5,2" d="M1504.5183,-133.2C1345.5946,-133.2 1186.6709,-133.2 1027.7471,-133.2"/>
<polygon fill="#666666" stroke="#666666" stroke-width="1.2" points="1504.5671,-136.0001 1512.5671,-133.2 1504.5671,-130.4001 1504.5671,-136.0001"/>
<polygon fill="#666666" stroke="#666666" stroke-width="1.2" points="1027.5625,-130.4001 1019.5625,-133.2 1027.5625,-136.0001 1027.5625,-130.4001"/>
</g>
<!-- Age_Menarche -->
<g id="node9" class="node">
<title>Age_Menarche</title>
<path fill="none" stroke="#000000" stroke-width="1.3" d="M1808.8595,-36C1808.8595,-36 1735.1405,-36 1735.1405,-36 1729.1405,-36 1723.1405,-30 1723.1405,-24 1723.1405,-24 1723.1405,-12 1723.1405,-12 1723.1405,-6 1729.1405,0 1735.1405,0 1735.1405,0 1808.8595,0 1808.8595,0 1814.8595,0 1820.8595,-6 1820.8595,-12 1820.8595,-12 1820.8595,-24 1820.8595,-24 1820.8595,-30 1814.8595,-36 1808.8595,-36"/>
<text text-anchor="middle" x="1772" y="-14.4" font-family="Helvetica,sans-Serif" font-size="12.00" fill="#000000">Age_Menarche</text>
</g>
<!-- Development&#45;&gt;Age_Menarche -->
<g id="edge6" class="edge">
<title>Development&#45;&gt;Age_Menarche</title>
<path fill="none" stroke="#333333" stroke-width="1.6" d="M1595.9376,-117.4235C1630.9376,-97.6588 1691.1799,-63.6396 1731.3031,-40.9818"/>
<polygon fill="#333333" stroke="#333333" stroke-width="1.6" points="1733.0553,-44.0119 1740.0418,-36.047 1729.6132,-37.9166 1733.0553,-44.0119"/>
<text text-anchor="middle" x="1683.6434" y="-72.3" font-family="Helvetica,sans-Serif" font-size="11.00" fill="#000000">.42</text>
</g>
<!-- BE_noAN -->
<g id="node10" class="node">
<title>BE_noAN</title>
<path fill="none" stroke="#000000" stroke-width="1.3" d="M1400.1843,-36C1400.1843,-36 1355.8157,-36 1355.8157,-36 1349.8157,-36 1343.8157,-30 1343.8157,-24 1343.8157,-24 1343.8157,-12 1343.8157,-12 1343.8157,-6 1349.8157,0 1355.8157,0 1355.8157,0 1400.1843,0 1400.1843,0 1406.1843,0 1412.1843,-6 1412.1843,-12 1412.1843,-12 1412.1843,-24 1412.1843,-24 1412.1843,-30 1406.1843,-36 1400.1843,-36"/>
<text text-anchor="middle" x="1378" y="-14.4" font-family="Helvetica,sans-Serif" font-size="12.00" fill="#000000">BE_noAN</text>
</g>
<!-- Development&#45;&gt;BE_noAN -->
<g id="edge7" class="edge">
<title>Development&#45;&gt;BE_noAN</title>
<path fill="none" stroke="#333333" stroke-width="1.6" d="M1541.5813,-117.1819C1509.1082,-97.493 1453.7434,-63.9244 1416.5282,-41.3603"/>
<polygon fill="#333333" stroke="#333333" stroke-width="1.6" points="1418.3145,-38.3503 1407.9488,-36.1585 1414.6852,-44.336 1418.3145,-38.3503"/>
<text text-anchor="middle" x="1487.4743" y="-72.3" font-family="Helvetica,sans-Serif" font-size="11.00" fill="#000000">&#45;.56</text>
</g>
<!-- BMI_Childhood -->
<g id="node11" class="node">
<title>BMI_Childhood</title>
<path fill="none" stroke="#000000" stroke-width="1.3" d="M1605.0164,-36C1605.0164,-36 1530.9836,-36 1530.9836,-36 1524.9836,-36 1518.9836,-30 1518.9836,-24 1518.9836,-24 1518.9836,-12 1518.9836,-12 1518.9836,-6 1524.9836,0 1530.9836,0 1530.9836,0 1605.0164,0 1605.0164,0 1611.0164,0 1617.0164,-6 1617.0164,-12 1617.0164,-12 1617.0164,-24 1617.0164,-24 1617.0164,-30 1611.0164,-36 1605.0164,-36"/>
<text text-anchor="middle" x="1568" y="-14.4" font-family="Helvetica,sans-Serif" font-size="12.00" fill="#000000">BMI_Childhood</text>
</g>
<!-- Development&#45;&gt;BMI_Childhood -->
<g id="edge8" class="edge">
<title>Development&#45;&gt;BMI_Childhood</title>
<path fill="none" stroke="#333333" stroke-width="1.6" d="M1568,-114.9462C1568,-96.493 1568,-67.7192 1568,-46.3061"/>
<polygon fill="#333333" stroke="#333333" stroke-width="1.6" points="1571.5001,-46.1683 1568,-36.1684 1564.5001,-46.1684 1571.5001,-46.1683"/>
<text text-anchor="middle" x="1577.4743" y="-72.3" font-family="Helvetica,sans-Serif" font-size="11.00" fill="#000000">&#45;.95</text>
</g>
<!-- Internalizing&#45;&gt;AN -->
<g id="edge12" class="edge">
<title>Internalizing&#45;&gt;AN</title>
<path fill="none" stroke="#333333" stroke-width="1.6" d="M925.3045,-123.0215C860.0055,-107.018 731.7691,-73.8637 626,-36 623.2521,-35.0163 620.4226,-33.9687 617.5842,-32.8925"/>
<polygon fill="#333333" stroke="#333333" stroke-width="1.6" points="618.5935,-29.53 608.0046,-29.1753 616.0612,-36.0559 618.5935,-29.53"/>
<text text-anchor="middle" x="773.6434" y="-72.3" font-family="Helvetica,sans-Serif" font-size="11.00" fill="#000000">.40</text>
</g>
<!-- Internalizing&#45;&gt;OCD -->
<g id="edge11" class="edge">
<title>Internalizing&#45;&gt;OCD</title>
<path fill="none" stroke="#333333" stroke-width="1.6" d="M922.0152,-124.9924C878.5014,-116.2182 817.6772,-100.9951 802.7133,-82.2 794.799,-72.2594 792.9848,-58.4854 793.4135,-46.2437"/>
<polygon fill="#333333" stroke="#333333" stroke-width="1.6" points="796.9232,-46.2725 794.2705,-36.0152 789.9477,-45.6879 796.9232,-46.2725"/>
<text text-anchor="middle" x="809.6434" y="-72.3" font-family="Helvetica,sans-Serif" font-size="11.00" fill="#000000">.25</text>
</g>
<!-- Internalizing&#45;&gt;BE_noAN -->
<g id="edge13" class="edge">
<title>Internalizing&#45;&gt;BE_noAN</title>
<path fill="none" stroke="#333333" stroke-width="1.6" d="M1008.4345,-121.8389C1085.7362,-100.119 1253.9027,-52.8683 1333.9478,-30.3776"/>
<polygon fill="#333333" stroke="#333333" stroke-width="1.6" points="1335.0403,-33.7062 1343.7207,-27.6316 1333.1467,-26.9672 1335.0403,-33.7062"/>
<text text-anchor="middle" x="1192.6434" y="-72.3" font-family="Helvetica,sans-Serif" font-size="11.00" fill="#000000">.43</text>
</g>
<!-- MDD -->
<g id="node12" class="node">
<title>MDD</title>
<path fill="none" stroke="#000000" stroke-width="1.3" d="M1225,-36C1225,-36 1195,-36 1195,-36 1189,-36 1183,-30 1183,-24 1183,-24 1183,-12 1183,-12 1183,-6 1189,0 1195,0 1195,0 1225,0 1225,0 1231,0 1237,-6 1237,-12 1237,-12 1237,-24 1237,-24 1237,-30 1231,-36 1225,-36"/>
<text text-anchor="middle" x="1210" y="-14.4" font-family="Helvetica,sans-Serif" font-size="12.00" fill="#000000">MDD</text>
</g>
<!-- Internalizing&#45;&gt;MDD -->
<g id="edge9" class="edge">
<title>Internalizing&#45;&gt;MDD</title>
<path fill="none" stroke="#333333" stroke-width="1.6" d="M998.6495,-118.6098C1043.2699,-97.3691 1125.9743,-57.999 1173.6212,-35.3175"/>
<polygon fill="#333333" stroke="#333333" stroke-width="1.6" points="1175.421,-38.3372 1182.9458,-30.8787 1172.4122,-32.0167 1175.421,-38.3372"/>
<text text-anchor="middle" x="1103.6434" y="-72.3" font-family="Helvetica,sans-Serif" font-size="11.00" fill="#000000">.90</text>
</g>
<!-- PTSD -->
<g id="node13" class="node">
<title>PTSD</title>
<path fill="none" stroke="#000000" stroke-width="1.3" d="M903,-36C903,-36 873,-36 873,-36 867,-36 861,-30 861,-24 861,-24 861,-12 861,-12 861,-6 867,0 873,0 873,0 903,0 903,0 909,0 915,-6 915,-12 915,-12 915,-24 915,-24 915,-30 909,-36 903,-36"/>
<text text-anchor="middle" x="888" y="-14.4" font-family="Helvetica,sans-Serif" font-size="12.00" fill="#000000">PTSD</text>
</g>
<!-- Internalizing&#45;&gt;PTSD -->
<g id="edge10" class="edge">
<title>Internalizing&#45;&gt;PTSD</title>
<path fill="none" stroke="#333333" stroke-width="1.6" d="M955.8497,-115.7036C942.711,-96.7838 921.6138,-66.4039 906.4312,-44.541"/>
<polygon fill="#333333" stroke="#333333" stroke-width="1.6" points="909.1077,-42.2589 900.5289,-36.0415 903.3581,-46.2517 909.1077,-42.2589"/>
<text text-anchor="middle" x="937.6434" y="-72.3" font-family="Helvetica,sans-Serif" font-size="11.00" fill="#000000">.99</text>
</g>
<!-- ANX -->
<g id="node14" class="node">
<title>ANX</title>
<path fill="none" stroke="#000000" stroke-width="1.3" d="M1064,-36C1064,-36 1034,-36 1034,-36 1028,-36 1022,-30 1022,-24 1022,-24 1022,-12 1022,-12 1022,-6 1028,0 1034,0 1034,0 1064,0 1064,0 1070,0 1076,-6 1076,-12 1076,-12 1076,-24 1076,-24 1076,-30 1070,-36 1064,-36"/>
<text text-anchor="middle" x="1049" y="-14.4" font-family="Helvetica,sans-Serif" font-size="12.00" fill="#000000">ANX</text>
</g>
<!-- Internalizing&#45;&gt;ANX -->
<g id="edge14" class="edge">
<title>Internalizing&#45;&gt;ANX</title>
<path fill="none" stroke="#333333" stroke-width="1.6" d="M980.3022,-115.7036C993.6643,-96.6997 1015.156,-66.1337 1030.543,-44.25"/>
<polygon fill="#333333" stroke="#333333" stroke-width="1.6" points="1033.4258,-46.235 1036.3145,-36.0415 1027.6996,-42.2087 1033.4258,-46.235"/>
<text text-anchor="middle" x="1017.6434" y="-72.3" font-family="Helvetica,sans-Serif" font-size="11.00" fill="#000000">.80</text>
</g>
<!-- e_FFM -->
<g id="node15" class="node">
<title>e_FFM</title>
<ellipse fill="#dddddd" stroke="#888888" stroke-width=".7" cx="10" cy="-18" rx="10" ry="10"/>
</g>
<!-- e_FFM&#45;&gt;FFM -->
<g id="edge18" class="edge">
<title>e_FFM&#45;&gt;FFM</title>
<path fill="none" stroke="#777777" stroke-width=".9" d="M20.0947,-18C30.9354,-18 48.7433,-18 64.5989,-18"/>
<polygon fill="#777777" stroke="#777777" stroke-width=".9" points="64.789,-20.1001 70.789,-18 64.7889,-15.9001 64.789,-20.1001"/>
<text text-anchor="middle" x="45.5" y="-24.3" font-family="Helvetica,sans-Serif" font-size="11.00" fill="#555555">.72</text>
</g>
<!-- e_AN -->
<g id="node16" class="node">
<title>e_AN</title>
<ellipse fill="#dddddd" stroke="#888888" stroke-width=".7" cx="493" cy="-18" rx="10" ry="10"/>
</g>
<!-- e_AN&#45;&gt;AN -->
<g id="edge19" class="edge">
<title>e_AN&#45;&gt;AN</title>
<path fill="none" stroke="#777777" stroke-width=".9" d="M503.0947,-18C513.9354,-18 531.7433,-18 547.5989,-18"/>
<polygon fill="#777777" stroke="#777777" stroke-width=".9" points="547.789,-20.1001 553.789,-18 547.7889,-15.9001 547.789,-20.1001"/>
<text text-anchor="middle" x="528.5" y="-24.3" font-family="Helvetica,sans-Serif" font-size="11.00" fill="#555555">.76</text>
</g>
<!-- e_ANX -->
<g id="node17" class="node">
<title>e_ANX</title>
<ellipse fill="#dddddd" stroke="#888888" stroke-width=".7" cx="961" cy="-18" rx="10" ry="10"/>
</g>
<!-- e_ANX&#45;&gt;ANX -->
<g id="edge20" class="edge">
<title>e_ANX&#45;&gt;ANX</title>
<path fill="none" stroke="#777777" stroke-width=".9" d="M971.0947,-18C981.9354,-18 999.7433,-18 1015.5989,-18"/>
<polygon fill="#777777" stroke="#777777" stroke-width=".9" points="1015.789,-20.1001 1021.789,-18 1015.7889,-15.9001 1015.789,-20.1001"/>
<text text-anchor="middle" x="996.5" y="-24.3" font-family="Helvetica,sans-Serif" font-size="11.00" fill="#555555">.36</text>
</g>
<!-- e_MDD -->
<g id="node18" class="node">
<title>e_MDD</title>
<ellipse fill="#dddddd" stroke="#888888" stroke-width=".7" cx="1122" cy="-18" rx="10" ry="10"/>
</g>
<!-- e_MDD&#45;&gt;MDD -->
<g id="edge21" class="edge">
<title>e_MDD&#45;&gt;MDD</title>
<path fill="none" stroke="#777777" stroke-width=".9" d="M1132.0947,-18C1142.9354,-18 1160.7433,-18 1176.5989,-18"/>
<polygon fill="#777777" stroke="#777777" stroke-width=".9" points="1176.789,-20.1001 1182.789,-18 1176.7889,-15.9001 1176.789,-20.1001"/>
<text text-anchor="middle" x="1157.5" y="-24.3" font-family="Helvetica,sans-Serif" font-size="11.00" fill="#555555">.19</text>
</g>
<!-- e_OCD -->
<g id="node19" class="node">
<title>e_OCD</title>
<ellipse fill="#dddddd" stroke="#888888" stroke-width=".7" cx="710" cy="-18" rx="10" ry="10"/>
</g>
<!-- e_OCD&#45;&gt;OCD -->
<g id="edge22" class="edge">
<title>e_OCD&#45;&gt;OCD</title>
<path fill="none" stroke="#777777" stroke-width=".9" d="M720.0947,-18C730.9354,-18 748.7433,-18 764.5989,-18"/>
<polygon fill="#777777" stroke="#777777" stroke-width=".9" points="764.789,-20.1001 770.789,-18 764.7889,-15.9001 764.789,-20.1001"/>
<text text-anchor="middle" x="745.5" y="-24.3" font-family="Helvetica,sans-Serif" font-size="11.00" fill="#555555">.87</text>
</g>
<!-- e_BMI_Childhood -->
<g id="node20" class="node">
<title>e_BMI_Childhood</title>
<ellipse fill="#dddddd" stroke="#888888" stroke-width=".7" cx="1458" cy="-18" rx="10" ry="10"/>
</g>
<!-- e_BMI_Childhood&#45;&gt;BMI_Childhood -->
<g id="edge23" class="edge">
<title>e_BMI_Childhood&#45;&gt;BMI_Childhood</title>
<path fill="none" stroke="#777777" stroke-width=".9" d="M1468.1514,-18C1478.5252,-18 1495.4856,-18 1512.5087,-18"/>
<polygon fill="#777777" stroke="#777777" stroke-width=".9" points="1512.7712,-20.1001 1518.7712,-18 1512.7711,-15.9001 1512.7712,-20.1001"/>
<text text-anchor="middle" x="1493.4959" y="-24.3" font-family="Helvetica,sans-Serif" font-size="11.00" fill="#555555">.11</text>
</g>
<!-- e_BFP -->
<g id="node21" class="node">
<title>e_BFP</title>
<ellipse fill="#dddddd" stroke="#888888" stroke-width=".7" cx="332" cy="-18" rx="10" ry="10"/>
</g>
<!-- e_BFP&#45;&gt;BFP -->
<g id="edge24" class="edge">
<title>e_BFP&#45;&gt;BFP</title>
<path fill="none" stroke="#777777" stroke-width=".9" d="M342.0947,-18C352.9354,-18 370.7433,-18 386.5989,-18"/>
<polygon fill="#777777" stroke="#777777" stroke-width=".9" points="386.789,-20.1001 392.789,-18 386.7889,-15.9001 386.789,-20.1001"/>
<text text-anchor="middle" x="367.5" y="-24.3" font-family="Helvetica,sans-Serif" font-size="11.00" fill="#555555">.30</text>
</g>
<!-- e_Age_Menarche -->
<g id="node22" class="node">
<title>e_Age_Menarche</title>
<ellipse fill="#dddddd" stroke="#888888" stroke-width=".7" cx="1663" cy="-18" rx="10" ry="10"/>
</g>
<!-- e_Age_Menarche&#45;&gt;Age_Menarche -->
<g id="edge25" class="edge">
<title>e_Age_Menarche&#45;&gt;Age_Menarche</title>
<path fill="none" stroke="#777777" stroke-width=".9" d="M1673.0591,-18C1683.3386,-18 1700.1448,-18 1717.0132,-18"/>
<polygon fill="#777777" stroke="#777777" stroke-width=".9" points="1717.2187,-20.1001 1723.2187,-18 1717.2187,-15.9001 1717.2187,-20.1001"/>
<text text-anchor="middle" x="1698.1603" y="-24.3" font-family="Helvetica,sans-Serif" font-size="11.00" fill="#555555">.82</text>
</g>
<!-- e_BE_noAN -->
<g id="node23" class="node">
<title>e_BE_noAN</title>
<ellipse fill="#dddddd" stroke="#888888" stroke-width=".7" cx="1283" cy="-18" rx="10" ry="10"/>
</g>
<!-- e_BE_noAN&#45;&gt;BE_noAN -->
<g id="edge26" class="edge">
<title>e_BE_noAN&#45;&gt;BE_noAN</title>
<path fill="none" stroke="#777777" stroke-width=".9" d="M1293.1667,-18C1303.7308,-18 1320.9506,-18 1337.125,-18"/>
<polygon fill="#777777" stroke="#777777" stroke-width=".9" points="1337.4929,-20.1001 1343.4929,-18 1337.4929,-15.9001 1337.4929,-20.1001"/>
<text text-anchor="middle" x="1318.3291" y="-24.3" font-family="Helvetica,sans-Serif" font-size="11.00" fill="#555555">.50</text>
</g>
<!-- e_BMI -->
<g id="node24" class="node">
<title>e_BMI</title>
<ellipse fill="#dddddd" stroke="#888888" stroke-width=".7" cx="171" cy="-18" rx="10" ry="10"/>
</g>
<!-- e_BMI&#45;&gt;BMI -->
<g id="edge27" class="edge">
<title>e_BMI&#45;&gt;BMI</title>
<path fill="none" stroke="#777777" stroke-width=".9" d="M181.0947,-18C191.9354,-18 209.7433,-18 225.5989,-18"/>
<polygon fill="#777777" stroke="#777777" stroke-width=".9" points="225.789,-20.1001 231.789,-18 225.7889,-15.9001 225.789,-20.1001"/>
<text text-anchor="middle" x="206.5" y="-24.3" font-family="Helvetica,sans-Serif" font-size="11.00" fill="#555555">.01</text>
</g>
<!-- e_PTSD -->
<g id="node25" class="node">
<title>e_PTSD</title>
<ellipse fill="#dddddd" stroke="#888888" stroke-width=".7" cx="654" cy="-18" rx="10" ry="10"/>
</g>
<!-- e_PTSD&#45;&gt;PTSD -->
<g id="edge28" class="edge">
<title>e_PTSD&#45;&gt;PTSD</title>
<path fill="none" stroke="#777777" stroke-width=".9" d="M661.862,-24.2064C688.3392,-44.3066 776.3116,-104.5484 842.6434,-73.2 856.6471,-66.5818 867.7812,-53.2859 875.5132,-41.4016"/>
<polygon fill="#777777" stroke="#777777" stroke-width=".9" points="877.443,-42.2747 878.8245,-36.0697 873.875,-40.0589 877.443,-42.2747"/>
<text text-anchor="middle" x="835" y="-72.3" font-family="Helvetica,sans-Serif" font-size="11.00" fill="#555555">.01</text>
</g>
</g>
</svg>
